<svg width="24" height="24" viewBox="0 0 24 24" fill="none" xmlns="http://www.w3.org/2000/svg">
<path d="M9 16.4445V17.3333C9 17.6836 9.0776 18.0303 9.22836 18.3539C9.37913 18.6773 9.6001 18.9713 9.87868 19.2189C10.1573 19.4666 10.488 19.663 10.8519 19.797C11.2159 19.931 11.606 20 12 20C12.394 20 12.7841 19.931 13.1481 19.797C13.512 19.663 13.8427 19.4666 14.1213 19.2189C14.3999 18.9713 14.6209 18.6773 14.7716 18.3539C14.9224 18.0303 15 17.6836 15 17.3333V16.4445" stroke="black" stroke-opacity="0.9" stroke-width="1.5" stroke-linecap="round" stroke-linejoin="round"/>
<path d="M20 16.4444C20 16.4444 18 12 18 9.33333C18 6.42844 15.268 4 12 4C8.732 4 6 6.42844 6 9.33333C6 12.8889 4 16.4444 4 16.4444H20Z" stroke="black" stroke-opacity="0.9" stroke-width="1.5" stroke-linecap="round" stroke-linejoin="round"/>
</svg>
