<svg width="25" height="24" viewBox="0 0 25 24" fill="none" xmlns="http://www.w3.org/2000/svg">
<path d="M15.9419 8.55585C15.7395 8.35345 15.465 8.23975 15.1788 8.23975C14.8926 8.23975 14.6181 8.35345 14.4157 8.55585C14.2133 8.75824 14.0996 9.03275 14.0996 9.31899C14.0996 9.60522 14.2133 9.87973 14.4157 10.0821C14.6181 10.2845 14.8926 10.3982 15.1788 10.3982C15.465 10.3982 15.7395 10.2845 15.9419 10.0821C16.1443 9.87973 16.258 9.60522 16.258 9.31899C16.258 9.03275 16.1443 8.75824 15.9419 8.55585Z" fill="#AFAAA7"/>
<path d="M19.0642 4.51543C19.556 4.55326 19.9468 4.94401 19.9846 5.4358L20.4647 11.6785C20.4871 11.9695 20.3812 12.2558 20.1748 12.4622L13.3445 19.2928C12.954 19.6834 12.3208 19.6834 11.9303 19.2928L5.20709 12.5694C4.81658 12.1789 4.81659 11.5457 5.20712 11.1552L12.0374 4.3252C12.2438 4.11879 12.5301 4.01288 12.8212 4.03527L19.0642 4.51543ZM13.6536 7.79339C13.4506 7.99318 13.2892 8.2312 13.1786 8.4937C13.068 8.7562 13.0105 9.038 13.0094 9.32284C13.0083 9.60768 13.0635 9.88993 13.172 10.1533C13.2805 10.4167 13.4401 10.6559 13.6415 10.8573C13.843 11.0587 14.0823 11.2182 14.3457 11.3267C14.609 11.4351 14.8913 11.4903 15.1761 11.4891C15.4609 11.4879 15.7427 11.4304 16.0052 11.3197C16.2676 11.2091 16.5056 11.0476 16.7053 10.8445C17.1045 10.4387 17.3271 9.89157 17.3247 9.32233C17.3224 8.7531 17.0951 8.20787 16.6926 7.80541C16.2901 7.40294 15.7448 7.17585 15.1756 7.1736C14.6064 7.17135 14.0594 7.39412 13.6536 7.79339Z" fill="#AFAAA7"/>
</svg>
