<svg width="24" height="25" viewBox="0 0 24 25" fill="none" xmlns="http://www.w3.org/2000/svg">
<path d="M10 6.5H4" stroke="black" stroke-opacity="0.8" stroke-width="1.5" stroke-linecap="round"/>
<path d="M14 6.5H20" stroke="black" stroke-opacity="0.8" stroke-width="1.5" stroke-linecap="round"/>
<path d="M16 12.5H4" stroke="black" stroke-opacity="0.8" stroke-width="1.5" stroke-linecap="round"/>
<path d="M8 18.5H20" stroke="black" stroke-opacity="0.8" stroke-width="1.5" stroke-linecap="round"/>
<path d="M8 18.5C8 17.3954 7.10457 16.5 6 16.5C4.89543 16.5 4 17.3954 4 18.5C4 19.6046 4.89543 20.5 6 20.5C7.10457 20.5 8 19.6046 8 18.5Z" stroke="black" stroke-opacity="0.8" stroke-width="1.5" stroke-linecap="round"/>
<path d="M20 12.5C20 11.3954 19.1046 10.5 18 10.5C16.8954 10.5 16 11.3954 16 12.5C16 13.6046 16.8954 14.5 18 14.5C19.1046 14.5 20 13.6046 20 12.5Z" stroke="black" stroke-opacity="0.8" stroke-width="1.5" stroke-linecap="round"/>
<path d="M14 6.5C14 5.39543 13.1046 4.5 12 4.5C10.8954 4.5 10 5.39543 10 6.5C10 7.60457 10.8954 8.5 12 8.5C13.1046 8.5 14 7.60457 14 6.5Z" stroke="black" stroke-opacity="0.8" stroke-width="1.5" stroke-linecap="round"/>
</svg>
