<svg width="24" height="24" viewBox="0 0 24 24" fill="none" xmlns="http://www.w3.org/2000/svg">
<path d="M20 18.9841V10.3492C20 10.1915 19.9639 10.036 19.8944 9.89489C19.825 9.75384 19.7242 9.63113 19.6 9.53651L12.6 4.20317C12.4269 4.07129 12.2164 4 12 4C11.7836 4 11.5731 4.07129 11.4 4.20317L4.4 9.53651C4.2758 9.63113 4.175 9.75384 4.10557 9.89489C4.03614 10.036 4 10.1915 4 10.3492V18.9841C4 19.2536 4.10536 19.5119 4.29289 19.7025C4.48043 19.893 4.73478 20 5 20H9C9.26522 20 9.51957 19.893 9.70711 19.7025C9.89464 19.5119 10 19.2536 10 18.9841V15.9365C10 15.6671 10.1054 15.4087 10.2929 15.2182C10.4804 15.0277 10.7348 14.9206 11 14.9206H13C13.2652 14.9206 13.5196 15.0277 13.7071 15.2182C13.8946 15.4087 14 15.6671 14 15.9365V18.9841C14 19.2536 14.1054 19.5119 14.2929 19.7025C14.4804 19.893 14.7348 20 15 20H19C19.2652 20 19.5196 19.893 19.7071 19.7025C19.8946 19.5119 20 19.2536 20 18.9841Z" stroke="black" stroke-opacity="0.9" stroke-width="1.5" stroke-linecap="round" stroke-linejoin="round"/>
</svg>
