<svg width="25" height="24" viewBox="0 0 25 24" fill="none" xmlns="http://www.w3.org/2000/svg">
<path d="M7.27557 19.731C8.0576 20.2368 8.90294 20.6956 9.97917 20.9204C10.184 20.9625 10.3963 20.986 10.6197 20.9906C10.6346 20.9953 11.0852 21 11.0852 21H13.8558C14.1314 21 15.0624 20.5505 15.8854 19.9675C16.4775 19.5484 17.0659 19.1223 17.375 18.9093C18.2687 18.2912 18.8236 17.5303 19.3002 16.7436C20.6632 14.4914 20.8866 12.1969 19.8588 9.86507C19.1997 8.37605 18.0676 6.98067 16.3583 6.21274C16.4291 6.33215 16.4551 6.89404 16.5147 6.99472C16.8424 7.54491 17.1292 8.10212 17.0696 8.70148C17.0063 9.32191 16.6823 9.87678 15.9896 10.3169C15.5316 10.6096 14.9469 10.544 14.6267 10.1788C14.5522 10.0922 14.474 9.99618 14.4516 9.90019C14.3623 9.51389 14.2692 9.12758 14.2245 8.74128C14.0941 7.6128 13.7702 6.51711 13.0179 5.49164C12.1689 4.33741 10.8655 3.52032 8.98859 3.11997C8.30339 2.97481 7.61818 2.94672 6.88083 3.11763C6.96276 3.15509 7.00745 3.17382 7.04841 3.19255C8.18422 3.7802 8.96253 4.51066 9.16362 5.47057C9.32003 6.2104 9.12266 6.92682 8.7093 7.6011C8.07622 8.62656 7.36495 9.63095 6.6425 10.6307C5.89026 11.6795 5.14919 12.7307 4.78797 13.8756C4.4975 14.791 4.37461 15.7088 4.6688 16.6383C5.05982 17.8417 5.94612 18.8718 7.27557 19.731Z" fill="#AFAAA7"/>
</svg>
