<svg width="24" height="25" viewBox="0 0 24 25" fill="none" xmlns="http://www.w3.org/2000/svg">
<path d="M3.595 19.6039L6.766 18.588L7.321 18.8546C8.596 19.4655 10.0135 19.7912 11.5 19.7912C16.465 19.7912 20.5 16.0361 20.5 11.8661C20.5 7.696 16.465 3.94093 11.5 3.94093C6.535 3.94093 2.5 7.696 2.5 11.8661C2.5 13.4223 3.085 15.0015 4.1605 16.3517L4.678 17.0001L3.5935 19.6024L3.595 19.6039ZM2.5345 21.4627C2.39876 21.5064 2.25284 21.5118 2.11397 21.4784C1.97511 21.445 1.8491 21.3741 1.75084 21.2741C1.65257 21.1741 1.58615 21.0492 1.55942 20.914C1.53269 20.7789 1.54677 20.6393 1.6 20.5117L2.968 17.2263C1.72 15.6557 1 13.7767 1 11.8661C1 7.09081 5.5 2.5 11.5 2.5C17.5 2.5 22 7.09081 22 11.8661C22 16.6413 17.5 21.2321 11.5 21.2321C9.81726 21.2367 8.15665 20.8637 6.6505 20.1428L2.5345 21.4612V21.4627Z" fill="black" fill-opacity="0.8"/>
<path d="M11.5 2.51172C17.4943 2.51172 21.9883 7.09821 21.9883 11.8662C21.9882 16.6342 17.4943 21.2207 11.5 21.2207L11.1855 21.2168C9.71733 21.1797 8.27255 20.8548 6.93945 20.2627L6.65527 20.1318L6.65723 20.1279L6.64648 20.1318L2.53125 21.4502L2.53418 21.4609H2.5332L2.53223 21.457L2.52246 21.4248V21.4531C2.42473 21.4834 2.32216 21.4944 2.2207 21.4844L2.11719 21.4668C1.98041 21.4339 1.85549 21.364 1.75879 21.2656C1.66237 21.1674 1.59759 21.0446 1.57129 20.9121C1.55158 20.8125 1.55435 20.7101 1.5791 20.6123L1.61035 20.5166L2.97754 17.2305L2.99023 17.2354L2.97754 17.2188C1.73101 15.65 1.01176 13.7739 1.01172 11.8662C1.01172 7.09821 5.50566 2.51172 11.5 2.51172ZM11.5 3.92969C6.52977 3.92969 2.48828 7.6885 2.48828 11.8662C2.48832 13.3278 3.00345 14.8092 3.95508 16.1025L4.15137 16.3594L4.66406 17.001L3.58301 19.5977L3.59375 19.6025L3.56348 19.5898L3.58496 19.6113L3.58691 19.6123L3.57812 19.6221L3.59863 19.6152L6.76465 18.6006L7.31641 18.8652C8.5929 19.4768 10.0119 19.8027 11.5 19.8027C16.4702 19.8027 20.5116 16.0439 20.5117 11.8662C20.5117 7.6885 16.4702 3.92969 11.5 3.92969Z" stroke="black" stroke-opacity="0.8" stroke-width="0.0234375"/>
<path d="M11.5008 13.4498C11.3432 13.4498 11.1872 13.4188 11.0416 13.3585C10.896 13.2982 10.7637 13.2098 10.6523 13.0983C10.5408 12.9869 10.4524 12.8546 10.3921 12.709C10.3318 12.5634 10.3008 12.4074 10.3008 12.2498C10.3008 12.0922 10.3318 11.9362 10.3921 11.7906C10.4524 11.645 10.5408 11.5127 10.6523 11.4013C10.7637 11.2898 10.896 11.2015 11.0416 11.1411C11.1872 11.0808 11.3432 11.0498 11.5008 11.0498C11.819 11.0498 12.1243 11.1762 12.3493 11.4013C12.5744 11.6263 12.7008 11.9315 12.7008 12.2498C12.7008 12.5681 12.5744 12.8733 12.3493 13.0983C12.1243 13.3234 11.819 13.4498 11.5008 13.4498ZM16.0008 13.4498C15.8432 13.4498 15.6872 13.4188 15.5416 13.3585C15.396 13.2982 15.2637 13.2098 15.1523 13.0983C15.0408 12.9869 14.9524 12.8546 14.8921 12.709C14.8318 12.5634 14.8008 12.4074 14.8008 12.2498C14.8008 12.0922 14.8318 11.9362 14.8921 11.7906C14.9524 11.645 15.0408 11.5127 15.1523 11.4013C15.2637 11.2898 15.396 11.2015 15.5416 11.1411C15.6872 11.0808 15.8432 11.0498 16.0008 11.0498C16.319 11.0498 16.6243 11.1762 16.8493 11.4013C17.0744 11.6263 17.2008 11.9315 17.2008 12.2498C17.2008 12.5681 17.0744 12.8733 16.8493 13.0983C16.6243 13.3234 16.319 13.4498 16.0008 13.4498ZM7.00078 13.4498C6.8432 13.4498 6.68715 13.4188 6.54156 13.3585C6.39597 13.2982 6.26368 13.2098 6.15225 13.0983C6.04082 12.9869 5.95243 12.8546 5.89213 12.709C5.83182 12.5634 5.80078 12.4074 5.80078 12.2498C5.80078 12.0922 5.83182 11.9362 5.89213 11.7906C5.95243 11.645 6.04082 11.5127 6.15225 11.4013C6.26368 11.2898 6.39597 11.2015 6.54156 11.1411C6.68715 11.0808 6.8432 11.0498 7.00078 11.0498C7.31904 11.0498 7.62427 11.1762 7.84931 11.4013C8.07435 11.6263 8.20078 11.9315 8.20078 12.2498C8.20078 12.5681 8.07435 12.8733 7.84931 13.0983C7.62427 13.3234 7.31904 13.4498 7.00078 13.4498Z" fill="black" fill-opacity="0.8"/>
<path d="M7.00098 11.0615C7.27677 11.0616 7.54247 11.1577 7.75391 11.3311L7.84082 11.4092C8.06367 11.632 8.18945 11.9348 8.18945 12.25C8.18941 12.5257 8.09316 12.7915 7.91992 13.0029L7.84082 13.0898C7.61802 13.3126 7.31606 13.4384 7.00098 13.4385C6.84493 13.4385 6.69007 13.4074 6.5459 13.3477C6.43773 13.3028 6.33725 13.242 6.24707 13.168L6.16016 13.0898C6.07765 13.0073 6.008 12.9131 5.95312 12.8105L5.90332 12.7041C5.84369 12.5601 5.81253 12.4059 5.8125 12.25C5.8125 12.1331 5.82951 12.0168 5.86328 11.9053L5.90332 11.7949C5.94809 11.6869 6.00815 11.5862 6.08203 11.4961L6.16016 11.4092C6.24287 11.3265 6.33766 11.2571 6.44043 11.2021L6.5459 11.1523C6.69007 11.0926 6.84493 11.0615 7.00098 11.0615ZM11.501 11.0615C11.8159 11.0616 12.118 11.1866 12.3408 11.4092C12.5637 11.632 12.6895 11.9348 12.6895 12.25C12.6894 12.5257 12.5932 12.7915 12.4199 13.0029L12.3408 13.0898C12.118 13.3126 11.8161 13.4384 11.501 13.4385C11.3449 13.4385 11.1901 13.4074 11.0459 13.3477C10.9377 13.3028 10.8372 13.242 10.7471 13.168L10.6602 13.0898C10.5777 13.0073 10.508 12.9131 10.4531 12.8105L10.4033 12.7041C10.3437 12.5601 10.3125 12.4059 10.3125 12.25C10.3125 12.1331 10.3295 12.0168 10.3633 11.9053L10.4033 11.7949C10.4481 11.6869 10.5081 11.5862 10.582 11.4961L10.6602 11.4092C10.7429 11.3265 10.8377 11.2571 10.9404 11.2021L11.0459 11.1523C11.1539 11.1076 11.2679 11.0789 11.3838 11.0674L11.501 11.0615ZM16.001 11.0615C16.2768 11.0616 16.5425 11.1577 16.7539 11.3311L16.8408 11.4092C17.0637 11.632 17.1895 11.9348 17.1895 12.25C17.1894 12.5257 17.0932 12.7915 16.9199 13.0029L16.8408 13.0898C16.618 13.3126 16.3161 13.4384 16.001 13.4385C15.884 13.4385 15.7678 13.4205 15.6562 13.3867L15.5459 13.3477C15.4377 13.3028 15.3372 13.242 15.2471 13.168L15.1602 13.0898C15.0777 13.0073 15.008 12.9131 14.9531 12.8105L14.9033 12.7041C14.8437 12.5601 14.8125 12.4059 14.8125 12.25C14.8125 12.1331 14.8295 12.0168 14.8633 11.9053L14.9033 11.7949C14.9481 11.6869 15.0081 11.5862 15.082 11.4961L15.1602 11.4092C15.2429 11.3265 15.3377 11.2571 15.4404 11.2021L15.5459 11.1523C15.6539 11.1076 15.7679 11.0789 15.8838 11.0674L16.001 11.0615Z" stroke="black" stroke-opacity="0.8" stroke-width="0.0234375"/>
</svg>
