<svg width="24" height="24" viewBox="0 0 24 24" fill="none" xmlns="http://www.w3.org/2000/svg">
<rect x="2.75" y="4.75" width="18.5" height="14.5" rx="3.25" stroke="black" stroke-opacity="0.9" stroke-width="1.5"/>
<path d="M13.856 10.6273C14.549 11.0839 14.8955 11.3122 15.0125 11.5987C15.1148 11.849 15.1113 12.13 15.003 12.3778C14.8789 12.6613 14.5269 12.881 13.823 13.3205L11.6192 14.6964C10.8103 15.2014 10.4058 15.4539 10.0743 15.4259C9.78542 15.4015 9.52132 15.253 9.35049 15.0187C9.15446 14.7499 9.16031 14.2731 9.172 13.3196L9.2064 10.5142C9.21809 9.5606 9.22394 9.08383 9.4265 8.8199C9.60303 8.5899 9.87069 8.44784 10.1601 8.43054C10.4922 8.41068 10.8904 8.67304 11.6866 9.19775L13.856 10.6273Z" fill="black" fill-opacity="0.9"/>
</svg>
