<svg width="24" height="24" viewBox="0 0 24 24" fill="none" xmlns="http://www.w3.org/2000/svg">
<path d="M21 6.75C21 5.75544 20.6049 4.80161 19.9016 4.09835C19.1984 3.39509 18.2446 3 17.25 3H6.75C5.75544 3 4.80161 3.39509 4.09835 4.09835C3.39509 4.80161 3 5.75544 3 6.75V8.637C4.10929 7.89387 5.4148 7.49804 6.75 7.5C8.358 7.5 9.834 8.0625 10.9935 9H19.5V17.25C19.5 17.8467 19.2629 18.419 18.841 18.841C18.419 19.2629 17.8467 19.5 17.25 19.5H15.1815L15.8415 20.16C16.086 20.4045 16.263 20.6925 16.3725 21H17.25C18.2446 21 19.1984 20.6049 19.9016 19.9016C20.6049 19.1984 21 18.2446 21 17.25V6.75ZM6.75 7.5H4.5V6.75C4.5 6.15326 4.73705 5.58097 5.15901 5.15901C5.58097 4.73705 6.15326 4.5 6.75 4.5H17.25C17.8467 4.5 18.419 4.73705 18.841 5.15901C19.2629 5.58097 19.5 6.15326 19.5 6.75V7.5H6.75ZM9.894 18.4545C8.83101 19.2494 7.5064 19.6121 6.18674 19.4697C4.86709 19.3273 3.65036 18.6903 2.78141 17.687C1.91247 16.6836 1.45582 15.3884 1.50337 14.0619C1.55092 12.7355 2.09914 11.4762 3.03769 10.5377C3.97625 9.59914 5.23547 9.05092 6.56193 9.00337C7.88839 8.95582 9.18363 9.41247 10.187 10.2814C11.1903 11.1504 11.8273 12.3671 11.9697 13.6867C12.1121 15.0064 11.7494 16.331 10.9545 17.394L14.7795 21.219C14.9203 21.3596 14.9995 21.5504 14.9997 21.7495C14.9998 21.9485 14.9209 22.1394 14.7802 22.2803C14.6396 22.4211 14.4488 22.5003 14.2498 22.5004C14.0508 22.5006 13.8598 22.4216 13.719 22.281L9.894 18.4545ZM10.5 14.25C10.5 13.2554 10.1049 12.3016 9.40165 11.5983C8.69839 10.8951 7.74456 10.5 6.75 10.5C5.75544 10.5 4.80161 10.8951 4.09835 11.5983C3.39509 12.3016 3 13.2554 3 14.25C3 15.2446 3.39509 16.1984 4.09835 16.9017C4.80161 17.6049 5.75544 18 6.75 18C7.74456 18 8.69839 17.6049 9.40165 16.9017C10.1049 16.1984 10.5 15.2446 10.5 14.25Z" fill="black"/>
</svg>
