<svg width="24" height="24" viewBox="0 0 24 24" fill="none" xmlns="http://www.w3.org/2000/svg">
<path d="M5.8 5.8H9.409V4H4V9.4H5.8V5.8ZM5.8 16.6H4V22H9.409V20.2H5.8V16.6ZM20.2 20.2H16.6V22H22V16.6H20.2V20.2ZM16.6 5.8H20.2V9.4H22V4H16.6V5.8Z" fill="black" fill-opacity="0.9"/>
<path d="M6.70007 12.1001H12.1001V6.70007H6.70007V12.1001ZM8.50007 8.50007H10.3001V10.3001H8.50007V8.50007ZM6.70007 19.3001H12.1001V13.9001H6.70007V19.3001ZM8.50007 15.7001H10.3001V17.5001H8.50007V15.7001ZM19.3001 6.70007H13.9001V12.1001H19.3001V6.70007ZM17.5001 10.3001H15.7001V8.50007H17.5001V10.3001ZM13.9091 13.9001H15.7091V15.7001H13.9091V13.9001ZM15.7091 15.7001H17.5091V17.5001H15.7091V15.7001ZM17.5091 17.5001H19.3091V19.3001H17.5091V17.5001ZM17.5091 13.9001H19.3091V15.7001H17.5091V13.9001Z" fill="black" fill-opacity="0.9"/>
</svg>
