<svg width="25" height="24" viewBox="0 0 25 24" fill="none" xmlns="http://www.w3.org/2000/svg">
<path d="M4.5 16.9515L9.61898 11.3438C9.66292 11.2929 9.71496 11.251 9.77213 11.2207C9.82929 11.1903 9.89044 11.1721 9.95209 11.167C10.0137 11.1619 10.0746 11.17 10.1313 11.1909C10.188 11.2119 10.2394 11.2451 10.2825 11.2889L12.3858 13.4153C12.4289 13.4589 12.463 13.5121 12.4859 13.5719C12.5089 13.6317 12.5204 13.6968 12.5197 13.7636C12.5191 13.8304 12.5062 13.8975 12.482 13.9611C12.4578 14.0247 12.4226 14.0836 12.3785 14.1343L7.55988 20L4.5 16.9515Z" fill="#AFAAA7"/>
<path d="M18.7145 8.61466L20.4109 10.3169C20.4398 10.3461 20.4625 10.3818 20.4778 10.4218C20.493 10.4618 20.5006 10.5055 20.5 10.5502C20.4993 10.5949 20.4906 10.6398 20.4741 10.6823C20.4577 10.7248 20.434 10.764 20.4043 10.7977L17.4612 14.1787C17.4021 14.2465 17.3227 14.2885 17.2402 14.2953C17.1577 14.3021 17.0789 14.2733 17.0209 14.2151L15.3222 12.5089C15.2442 12.4309 15.1826 12.3355 15.1408 12.2282C15.0991 12.1209 15.078 12.0039 15.0789 11.8838C15.0798 11.7637 15.1027 11.6429 15.1461 11.5284C15.1895 11.414 15.2526 11.308 15.3319 11.2168L15.3437 11.204L15.4154 11.1249C15.4199 11.1191 15.4234 11.1124 15.4255 11.1053C15.4277 11.0982 15.4284 11.0909 15.4278 11.0837C15.2947 11.0129 15.1412 10.9905 14.9881 11.0194C14.9291 11.0311 14.7141 11.0874 14.4121 11.3124C14.2685 11.4201 13.6947 12.0303 13.2351 12.5191C13.1697 12.5887 13.1065 12.6558 13.0473 12.7187C12.9875 12.7817 12.9097 12.8194 12.8299 12.8241C12.7501 12.8287 12.6742 12.8 12.6181 12.7437L10.8645 10.9705C10.811 10.9163 10.7794 10.8407 10.7757 10.7583C10.7721 10.6758 10.7967 10.5921 10.8448 10.5231C11.4232 9.69345 11.8091 8.93765 11.8029 8.75931C11.7739 7.95837 11.559 7.44002 11.1059 7.07966C10.8387 6.87134 10.2323 6.64459 9.71789 6.64109C9.47715 6.63861 9.23433 6.67509 8.99734 6.74935C8.77043 6.82691 8.45508 6.93758 8.45508 6.93758L7.83434 6.57333C7.9102 6.05484 8.14608 5.56522 8.50244 5.18658C8.86435 4.79976 9.8065 4.11969 11.0383 4.01772C11.7491 3.95798 12.4518 4.04963 13.1069 4.28749C14.8333 4.9103 15.9554 5.8622 16.4703 6.37431L16.4733 6.37744C16.8197 6.72753 17.1396 7.10721 17.4304 7.5134C17.6741 7.86844 17.6439 8.28484 17.6239 8.56135L17.6237 8.56373C17.6233 8.5683 17.6228 8.57306 17.6223 8.57796C17.6211 8.58993 17.6198 8.60273 17.6197 8.61565C17.7661 8.4899 17.9413 8.41417 18.1205 8.39915C18.2311 8.38926 18.3406 8.40321 18.4425 8.44021C18.5445 8.4772 18.6369 8.53649 18.7145 8.61466Z" fill="#AFAAA7"/>
</svg>
