<svg width="24" height="24" viewBox="0 0 24 24" fill="none" xmlns="http://www.w3.org/2000/svg">
<path d="M7.04167 10.4625C6.96431 10.4625 6.89013 10.4933 6.83543 10.5479C6.78073 10.6026 6.75 10.6768 6.75 10.7542V18.3375C6.75 18.4985 6.88067 18.6292 7.04167 18.6292H16.9583C17.0357 18.6292 17.1099 18.5985 17.1646 18.5438C17.2193 18.4891 17.25 18.4149 17.25 18.3375V10.7542C17.25 10.6768 17.2193 10.6026 17.1646 10.5479C17.1099 10.4933 17.0357 10.4625 16.9583 10.4625H15.7917C15.5596 10.4625 15.337 10.3703 15.1729 10.2062C15.0089 10.0421 14.9167 9.81959 14.9167 9.58752C14.9167 9.35546 15.0089 9.1329 15.1729 8.9688C15.337 8.80471 15.5596 8.71252 15.7917 8.71252H16.9583C18.0853 8.71252 19 9.62719 19 10.7542V18.3375C19 18.879 18.7849 19.3983 18.402 19.7812C18.0191 20.1641 17.4998 20.3792 16.9583 20.3792H7.04167C6.50018 20.3792 5.98088 20.1641 5.59799 19.7812C5.2151 19.3983 5 18.879 5 18.3375V10.7542C5 9.62719 5.91467 8.71252 7.04167 8.71252H8.20833C8.4404 8.71252 8.66296 8.80471 8.82705 8.9688C8.99115 9.1329 9.08333 9.35546 9.08333 9.58752C9.08333 9.81959 8.99115 10.0421 8.82705 10.2062C8.66296 10.3703 8.4404 10.4625 8.20833 10.4625H7.04167ZM11.7935 3.08569C11.8206 3.05853 11.8528 3.03698 11.8882 3.02227C11.9236 3.00757 11.9616 3 12 3C12.0384 3 12.0764 3.00757 12.1118 3.02227C12.1472 3.03698 12.1794 3.05853 12.2065 3.08569L15.5852 6.46435C15.6261 6.50515 15.6539 6.55716 15.6652 6.61381C15.6765 6.67046 15.6707 6.72918 15.6486 6.78254C15.6265 6.8359 15.589 6.88149 15.541 6.91353C15.4929 6.94557 15.4364 6.96262 15.3787 6.96252H12.875V13.6709C12.875 13.9029 12.7828 14.1255 12.6187 14.2896C12.4546 14.4537 12.2321 14.5459 12 14.5459C11.7679 14.5459 11.5454 14.4537 11.3813 14.2896C11.2172 14.1255 11.125 13.9029 11.125 13.6709V6.96252H8.62133C8.56357 6.96262 8.50708 6.94557 8.45902 6.91353C8.41096 6.88149 8.37349 6.8359 8.35138 6.78254C8.32926 6.72918 8.32348 6.67046 8.33478 6.61381C8.34607 6.55716 8.37394 6.50515 8.41483 6.46435L11.7935 3.08569Z" fill="black" fill-opacity="0.9"/>
</svg>
