<svg width="24" height="24" viewBox="0 0 24 24" fill="none" xmlns="http://www.w3.org/2000/svg">
<path d="M16.5104 10.875C16.8368 10.9688 17.1476 11.096 17.4427 11.2567C17.7378 11.4174 18.0469 11.6618 18.3698 11.99C18.6927 12.3181 18.9688 12.7048 19.1979 13.1501C19.4271 13.5954 19.6181 14.1713 19.7708 14.8778C19.9236 15.5843 20 16.3761 20 17.2533C20 18.2846 19.6528 19.1669 18.9583 19.9001C18.2639 20.6334 17.4271 21 16.4479 21H7.55208C6.57292 21 5.73611 20.6334 5.04167 19.9001C4.34722 19.1669 4 18.2846 4 17.2533C4 16.3761 4.07639 15.5843 4.22917 14.8778C4.38194 14.1713 4.57292 13.5954 4.80208 13.1501C5.03125 12.7048 5.30729 12.3181 5.63021 11.99C5.95312 11.6618 6.26215 11.4174 6.55729 11.2567C6.85243 11.096 7.16319 10.9688 7.48958 10.875C6.94097 10.0379 6.66667 9.12723 6.66667 8.14286C6.66667 7.44643 6.80729 6.78181 7.08854 6.149C7.36979 5.51618 7.75 4.96875 8.22917 4.5067C8.70833 4.04464 9.27604 3.67801 9.93229 3.40681C10.5885 3.1356 11.2778 3 12 3C12.7222 3 13.4115 3.1356 14.0677 3.40681C14.724 3.67801 15.2917 4.04464 15.7708 4.5067C16.25 4.96875 16.6302 5.51618 16.9115 6.149C17.1927 6.78181 17.3333 7.44643 17.3333 8.14286C17.3333 9.12723 17.059 10.0379 16.5104 10.875ZM12 4.28571C10.8958 4.28571 9.95313 4.66239 9.17188 5.41574C8.39063 6.16909 8 7.07812 8 8.14286C8 9.20759 8.39063 10.1166 9.17188 10.87C9.95313 11.6233 10.8958 12 12 12C13.1042 12 14.0469 11.6233 14.8281 10.87C15.6094 10.1166 16 9.20759 16 8.14286C16 7.07812 15.6094 6.16909 14.8281 5.41574C14.0469 4.66239 13.1042 4.28571 12 4.28571ZM16.4479 19.7143C17.059 19.7143 17.5816 19.4749 18.0156 18.9961C18.4497 18.5173 18.6667 17.9364 18.6667 17.2533C18.6667 15.6529 18.3941 14.3906 17.849 13.4665C17.3038 12.5424 16.5208 12.0569 15.5 12.01C14.4931 12.8605 13.3264 13.2857 12 13.2857C10.6736 13.2857 9.50694 12.8605 8.5 12.01C7.47917 12.0569 6.69618 12.5424 6.15104 13.4665C5.6059 14.3906 5.33333 15.6529 5.33333 17.2533C5.33333 17.9364 5.55035 18.5173 5.98438 18.9961C6.4184 19.4749 6.94097 19.7143 7.55208 19.7143H16.4479Z" fill="black" fill-opacity="0.9"/>
</svg>
