<svg width="36" height="36" viewBox="0 0 36 36" fill="none" xmlns="http://www.w3.org/2000/svg">
<path d="M24 9H6C4.34314 9 3 10.3431 3 12V30C3 30.1681 3.01383 30.333 3.04039 30.4935C3.27577 31.9155 4.51125 33 6 33H24C25.6569 33 27 31.6569 27 30V24.2851V12C27 10.3431 25.6569 9 24 9Z" stroke="black" stroke-width="2.25" stroke-linecap="round" stroke-linejoin="round"/>
<path d="M13.5 16.5C13.5 18.1569 12.1569 19.5 10.5 19.5C8.84314 19.5 7.5 18.1569 7.5 16.5C7.5 14.8431 8.84314 13.5 10.5 13.5C12.1569 13.5 13.5 14.8431 13.5 16.5Z" stroke="black" stroke-width="2.25" stroke-linecap="round" stroke-linejoin="round"/>
<path d="M3.04041 30.4935L8.77146 24.7624C9.7915 23.8699 11.2833 23.7723 12.411 24.5241L13.1748 25.0332C14.2617 25.7578 15.6929 25.6957 16.713 24.8797L20.6852 21.7018C21.6977 20.8918 23.108 20.8284 24.1842 21.5226C24.3035 21.5995 24.4097 21.6948 24.51 21.7953L27 24.2851" stroke="black" stroke-width="2.25" stroke-linecap="round" stroke-linejoin="round"/>
<path d="M15 3H30.6C31.4401 3 31.8601 3 32.181 3.16349C32.4632 3.3073 32.6927 3.53677 32.8365 3.81901C33 4.13988 33 4.55992 33 5.4V21" stroke="black" stroke-width="2.25" stroke-linecap="round"/>
</svg>
