<svg width="30" height="30" viewBox="0 0 30 30" fill="none" xmlns="http://www.w3.org/2000/svg">
<g clip-path="url(#clip0_1429_16460)">
<rect width="30" height="30" rx="15" fill="white"/>
<path fill-rule="evenodd" clip-rule="evenodd" d="M16.8966 10.4138L8.60838 10.449C7.18944 9.13634 4.93615 9.15706 3.54625 10.5086C2.14258 11.8735 2.15258 14.0772 3.56857 15.4302C4.9705 16.7697 7.22425 16.7714 8.63124 15.4468L16.8966 15.4119V10.4138ZM6.11683 14.3966C6.51253 14.3949 6.89132 14.2418 7.1699 13.9709C7.44847 13.7 7.604 13.3336 7.60227 12.9522C7.60054 12.5708 7.4417 12.2057 7.16068 11.9372C6.87965 11.6686 6.49948 11.5187 6.10379 11.5204C5.70809 11.5221 5.32929 11.6752 5.05072 11.9461C4.77214 12.2169 4.61662 12.5834 4.61835 12.9648C4.62008 13.3462 4.77892 13.7113 5.05994 13.9798C5.34096 14.2484 5.72114 14.3983 6.11683 14.3966Z" fill="#AFAAA7"/>
<path d="M26.1245 16.1452C25.9367 16.3431 25.6209 16.5588 25.1771 16.7921C24.2843 17.2542 23.3274 17.4244 22.3065 17.3029C21.2856 17.1813 20.4039 16.7933 19.6613 16.1388C18.687 15.2801 18.1703 14.2117 18.111 12.9338C18.0518 11.6559 18.4676 10.5474 19.3585 9.6083C20.2494 8.66921 21.3577 8.1711 22.6835 8.11399C24.0093 8.05687 25.1593 8.45768 26.1336 9.31641C26.4391 9.58564 26.7193 9.90951 26.9742 10.288C27.2292 10.6665 27.4003 11.0341 27.4875 11.3906C27.5188 11.5207 27.4935 11.6289 27.4116 11.7152C27.3298 11.8015 27.2202 11.8354 27.083 11.817L23.5477 11.0637L21.9296 12.7693L22.6813 14.9278C22.722 14.9358 23.0468 14.9961 23.6557 15.1086C24.2645 15.2211 24.8163 15.33 25.3112 15.4353C25.806 15.5406 26.0771 15.6141 26.1245 15.6559C26.2035 15.7255 26.2413 15.8054 26.2379 15.8956C26.2345 15.9859 26.1967 16.069 26.1245 16.1452Z" fill="#AFAAA7"/>
<path d="M11.982 7.14331L12.3577 16.2012C12.3585 16.2813 12.3756 16.3607 12.4082 16.4348C12.4408 16.5089 12.4881 16.5763 12.5475 16.633C12.6069 16.6898 12.6772 16.7348 12.7544 16.7656C12.8315 16.7963 12.914 16.8122 12.9971 16.8122L17.0464 16.8208C17.1294 16.821 17.2115 16.8054 17.2878 16.7749C17.3642 16.7443 17.4334 16.6995 17.4914 16.643C17.5494 16.5864 17.5951 16.5193 17.6259 16.4453C17.6567 16.3714 17.672 16.2921 17.6709 16.2121L17.8332 7.19366L11.982 7.14331Z" fill="#F37B2A"/>
<path d="M19.3854 26.2323L22.64 26.2501C22.6956 26.2501 22.7505 26.2396 22.8015 26.219C22.8526 26.1985 22.8988 26.1683 22.9374 26.1303C22.9761 26.0923 23.0064 26.0473 23.0268 25.9977C23.0471 25.9481 23.057 25.895 23.0559 25.8414L22.9777 20.5023C22.9762 20.3951 22.9307 20.2923 22.8512 20.2163C22.7717 20.1404 22.6647 20.0974 22.5535 20.0969L19.2929 20.0805C19.1435 20.0795 18.9958 20.1069 18.8582 20.1613C18.7206 20.2157 18.5959 20.2959 18.4913 20.3973C18.3866 20.4987 18.3041 20.6193 18.2485 20.7522C18.1928 20.8851 18.1651 21.0277 18.1671 21.1716L18.168 21.1924L18.1728 21.3197C18.1724 21.3285 18.1701 21.337 18.1661 21.3447C18.1621 21.3525 18.1565 21.3594 18.1495 21.3649C17.9494 21.3108 17.7705 21.1989 17.6373 21.0443C17.5864 20.9843 17.413 20.7541 17.2978 20.3085C17.2437 20.0958 17.1854 19.096 17.1388 18.295C17.1321 18.181 17.1257 18.0709 17.1196 17.9678C17.1131 17.8641 17.0656 17.7663 16.9869 17.6944C16.9083 17.6226 16.8044 17.5821 16.6967 17.5814L13.3205 17.5745C13.2173 17.5744 13.1182 17.6108 13.0419 17.6768C12.9656 17.7428 12.9175 17.8339 12.9067 17.9327C12.7769 19.1205 12.5124 20.0824 12.3492 20.2266C11.615 20.8731 10.9366 21.1245 10.1502 21.0408C9.6901 20.9879 8.8623 20.6616 8.32608 20.2266C8.0744 20.0237 7.85481 19.7864 7.67446 19.5224C7.50747 19.2642 7.27792 18.903 7.27792 18.903L6.31436 18.6798C5.93718 19.1789 5.75123 19.79 5.78771 20.4108C5.82275 21.0431 6.20137 22.4152 7.38841 23.5494C8.07258 24.2046 8.88146 24.7261 9.76946 25.0844C12.1063 26.0324 14.1061 26.1899 15.0899 26.1991L15.0959 26.1991C15.7626 26.2006 16.4279 26.1548 17.0863 26.0619C17.6511 25.9719 17.9859 25.5972 18.2082 25.3484L18.2101 25.3463C18.2137 25.3421 18.2174 25.3377 18.2212 25.3332C18.2305 25.3221 18.2404 25.3103 18.2516 25.2994C18.2927 25.5294 18.4077 25.742 18.5803 25.9072C18.6863 26.0097 18.812 26.0912 18.9501 26.147C19.0883 26.2028 19.2363 26.2318 19.3854 26.2323Z" fill="#F37B2A"/>
<path d="M6.68666 8.88648H7.91263V9.39855H6.68666V8.88648ZM6.25757 5.60398H8.34853V6.17514H6.25757V5.60398ZM6.12135 7.05485H10.2488V7.66539H6.12135V7.05485ZM6.85693 7.95425H8.26679V10.3373H6.85693V9.79902H7.63338V8.49915H6.85693V7.95425ZM6.38017 7.95425H6.99996V10.7181H6.38017V7.95425ZM6.9591 5.01313H7.65381V5.99132H6.9591V5.01313ZM9.52681 7.9083L10.1807 8.04616C9.98088 8.73768 9.69709 9.34822 9.3293 9.8778C8.96151 10.403 8.52107 10.8341 8.00798 11.1711C7.98073 11.1317 7.9376 11.0792 7.87857 11.0135C7.82408 10.9479 7.76506 10.8822 7.70149 10.8166C7.64246 10.7509 7.59024 10.6984 7.54484 10.659C8.03522 10.3789 8.44615 10.0025 8.77761 9.52985C9.11362 9.05717 9.36335 8.51665 9.52681 7.9083ZM6.4006 6.27361L6.92504 6.14888C6.97499 6.28018 7.01585 6.42461 7.04764 6.58217C7.08396 6.73535 7.1044 6.87103 7.10894 6.9892L6.55725 7.1205C6.55271 7.0067 6.53455 6.87103 6.50276 6.71347C6.47552 6.55153 6.44147 6.40491 6.4006 6.27361ZM9.07729 5.5449L9.60855 5.27573C9.7493 5.43329 9.88098 5.61055 10.0036 5.8075C10.1262 6.00007 10.2193 6.17295 10.2828 6.32613L9.71071 6.62812C9.66076 6.47931 9.57449 6.30206 9.45189 6.09636C9.3293 5.89065 9.20443 5.70683 9.07729 5.5449ZM7.61295 6.14888L8.23274 6.26048C8.17825 6.41366 8.12603 6.56466 8.07609 6.71347C8.02614 6.8579 7.98073 6.98482 7.93987 7.09424L7.42905 6.98263C7.46537 6.86446 7.49943 6.7266 7.53121 6.56904C7.56754 6.41148 7.59478 6.27142 7.61295 6.14888ZM3.93505 5.24291H6.28481V5.9388H3.93505V5.24291ZM4.5276 6.64782H5.71951V7.28462H4.5276V6.64782ZM4.5276 7.98708H5.71951V8.63045H4.5276V7.98708ZM4.20748 5.61711H4.86814V9.73993H4.20748V5.61711ZM5.31085 5.61711H5.99876V11.1645H5.31085V5.61711ZM3.79883 9.5955C4.04402 9.56049 4.33235 9.51454 4.66382 9.45764C4.99982 9.40074 5.34264 9.34166 5.69226 9.28038L5.74675 9.94345C5.43345 10.0091 5.12015 10.0747 4.80684 10.1404C4.49354 10.2017 4.20294 10.2586 3.93505 10.3111L3.79883 9.5955ZM8.45069 5H9.17265C9.16811 5.55584 9.17038 6.09198 9.17946 6.60843C9.19308 7.12487 9.21351 7.60412 9.24076 8.04616C9.268 8.48383 9.29978 8.86679 9.33611 9.19504C9.37697 9.52329 9.42238 9.78151 9.47233 9.96971C9.52227 10.1535 9.57676 10.2454 9.63579 10.2454C9.6812 10.2454 9.71525 10.1732 9.73795 10.0288C9.7652 9.88436 9.78563 9.68085 9.79925 9.41825C9.84012 9.46639 9.8946 9.5211 9.96271 9.58237C10.0308 9.64365 10.0989 9.69836 10.167 9.7465C10.2351 9.79464 10.2896 9.83184 10.3305 9.8581C10.2715 10.2126 10.1988 10.484 10.1126 10.6722C10.0308 10.8604 9.94455 10.9873 9.85374 11.0529C9.76293 11.123 9.67893 11.158 9.60173 11.158C9.41103 11.1536 9.24984 11.0551 9.11816 10.8625C8.98648 10.67 8.87751 10.3942 8.79123 10.0354C8.7095 9.67647 8.64366 9.24537 8.59372 8.74205C8.54831 8.23436 8.51426 7.66539 8.49155 7.03515C8.47339 6.40491 8.45977 5.72653 8.45069 5Z" fill="black" fill-opacity="0.8"/>
<path d="M17.5283 13.0434L17.6323 13.6869C17.3758 13.6117 17.1038 13.5176 16.8161 13.4046C16.5332 13.2904 16.2429 13.1661 15.9453 13.0316C15.6495 12.8943 15.3549 12.7519 15.0616 12.6045C14.7701 12.4542 14.4914 12.3057 14.2253 12.159C14.2581 12.0893 14.2895 12.0033 14.3194 11.9009C14.3512 11.7958 14.3722 11.7075 14.3823 11.636C14.6455 11.781 14.918 11.9238 15.1999 12.0645C15.4846 12.2068 15.7648 12.3406 16.0406 12.466C16.3192 12.5931 16.5848 12.7066 16.8373 12.8065C17.0898 12.9064 17.3201 12.9854 17.5283 13.0434ZM13.8751 12.5204L17.2692 14.5408L16.959 15.025L13.5649 13.0046L13.8751 12.5204ZM12.9501 13.3249L16.8985 15.6752L16.5802 16.172L12.6318 13.8217L12.9501 13.3249ZM15.6673 12.7614L16.2044 13.0811L14.4349 15.8429C14.3378 15.9945 14.2444 16.094 14.1547 16.1413C14.066 16.1933 13.9552 16.2087 13.8223 16.1877C13.6986 16.1646 13.553 16.1108 13.3854 16.0266C13.2207 15.944 13.029 15.8357 12.8102 15.7016C12.8322 15.6488 12.8501 15.5838 12.8639 15.5067C12.8787 15.4342 12.8916 15.3585 12.9025 15.2797C12.9116 15.2037 12.9177 15.1356 12.9207 15.0753C13.0277 15.1429 13.1333 15.2096 13.2375 15.2755C13.3417 15.3414 13.4353 15.3991 13.5184 15.4485C13.6014 15.498 13.6602 15.5329 13.6945 15.5534C13.745 15.5796 13.7857 15.5902 13.8165 15.5853C13.8474 15.5804 13.8763 15.5569 13.9032 15.5148L15.6673 12.7614Z" fill="white"/>
<path d="M18.9409 21.9912H21.3359V22.5612H18.6559L18.9409 21.9912ZM19.5959 23.0862H21.2109V23.6362H19.5959V23.0862ZM19.5909 24.1962H21.2759V24.7562H19.5909V24.1962ZM19.2909 22.1812H19.9109V25.8662H19.2909V22.1812ZM19.0559 21.2212L19.6309 21.3712C19.5376 21.6412 19.4276 21.9095 19.3009 22.1762C19.1776 22.4428 19.0426 22.6928 18.8959 22.9262C18.7493 23.1562 18.5993 23.3595 18.4459 23.5362C18.4159 23.4962 18.3726 23.4495 18.3159 23.3962C18.2593 23.3428 18.2009 23.2912 18.1409 23.2412C18.0843 23.1878 18.0326 23.1462 17.9859 23.1162C18.1359 22.9662 18.2759 22.7895 18.4059 22.5862C18.5393 22.3828 18.6609 22.1645 18.7709 21.9312C18.8843 21.6945 18.9793 21.4578 19.0559 21.2212ZM17.7309 21.1912L18.3109 21.3762C18.2043 21.6595 18.0776 21.9445 17.9309 22.2312C17.7843 22.5178 17.6243 22.7895 17.4509 23.0462C17.2776 23.2995 17.0993 23.5212 16.9159 23.7112C16.8959 23.6612 16.8659 23.5962 16.8259 23.5162C16.7893 23.4362 16.7493 23.3545 16.7059 23.2712C16.6626 23.1878 16.6226 23.1212 16.5859 23.0712C16.7393 22.9178 16.8859 22.7412 17.0259 22.5412C17.1693 22.3412 17.3009 22.1262 17.4209 21.8962C17.5443 21.6662 17.6476 21.4312 17.7309 21.1912ZM17.2259 22.5762L17.8309 21.9712V25.8612H17.2259V22.5762Z" fill="white"/>
<path d="M23.1594 9.87787L23.9307 9.7467C23.9509 9.89883 23.9733 10.095 23.9981 10.3352C24.0228 10.5754 24.0358 10.8455 24.0368 11.1453C24.041 11.4408 24.0217 11.7552 23.9789 12.0884C23.9362 12.4216 23.8561 12.7611 23.7388 13.107C23.6246 13.4486 23.4597 13.7859 23.244 14.1189C23.0313 14.4476 22.7554 14.7556 22.416 15.043C22.3413 14.9705 22.2432 14.8964 22.1218 14.8208C22.0041 14.7445 21.8824 14.6782 21.7568 14.6217C22.0927 14.3572 22.3636 14.0741 22.5696 13.7724C22.7757 13.4707 22.9329 13.1644 23.0412 12.8534C23.1488 12.5388 23.2192 12.2306 23.2523 11.9286C23.2848 11.6231 23.296 11.3379 23.2859 11.073C23.2758 10.808 23.2558 10.5726 23.2257 10.3666C23.1957 10.1606 23.1736 9.99767 23.1594 9.87787ZM23.9294 9.89692C23.9456 9.96453 23.9728 10.071 24.0109 10.2164C24.049 10.3617 24.1036 10.5339 24.1746 10.733C24.2456 10.932 24.3367 11.1461 24.4478 11.3754C24.562 11.6004 24.6999 11.8288 24.8614 12.0606C25.0229 12.2923 25.2114 12.514 25.4269 12.7255C25.6423 12.937 25.8899 13.1245 26.1696 13.288C26.453 13.4509 26.7724 13.5799 27.128 13.675C27.0337 13.7688 26.9492 13.874 26.8745 13.9904C26.8034 14.1061 26.7482 14.2137 26.7087 14.313C26.3357 14.2061 25.9999 14.0613 25.7013 13.8788C25.4059 13.692 25.1425 13.4812 24.9113 13.2465C24.6831 13.0075 24.4841 12.7599 24.3143 12.5036C24.1444 12.2473 23.9979 11.9926 23.8747 11.7395C23.7546 11.4821 23.6549 11.2417 23.5755 11.0182C23.4962 10.7946 23.4336 10.5997 23.3878 10.4334C23.3458 10.2665 23.3141 10.146 23.2928 10.0718L23.9294 9.89692Z" fill="black" fill-opacity="0.8"/>
</g>
<rect x="0.075" y="0.075" width="29.85" height="29.85" rx="14.925" stroke="black" stroke-opacity="0.4" stroke-width="0.15"/>
<defs>
<clipPath id="clip0_1429_16460">
<rect width="30" height="30" rx="15" fill="white"/>
</clipPath>
</defs>
</svg>
