<svg width="20" height="20" viewBox="0 0 20 20" fill="none" xmlns="http://www.w3.org/2000/svg">
<path d="M13.7587 9.0625C14.0307 9.14062 14.2897 9.24665 14.5356 9.38058C14.7816 9.51451 15.0391 9.71819 15.3082 9.99163C15.5773 10.2651 15.8073 10.5873 15.9983 10.9584C16.1893 11.3295 16.3484 11.8094 16.4757 12.3982C16.6031 12.9869 16.6667 13.6468 16.6667 14.3778C16.6667 15.2372 16.3774 15.9724 15.7987 16.5834C15.2199 17.1945 14.5226 17.5 13.7066 17.5H6.29344C5.47747 17.5 4.78013 17.1945 4.20143 16.5834C3.62273 15.9724 3.33337 15.2372 3.33337 14.3778C3.33337 13.6468 3.39703 12.9869 3.52435 12.3982C3.65166 11.8094 3.8108 11.3295 4.00178 10.9584C4.19275 10.5873 4.42278 10.2651 4.69188 9.99163C4.96098 9.71819 5.2185 9.51451 5.46445 9.38058C5.7104 9.24665 5.96937 9.14062 6.24136 9.0625C5.78418 8.36496 5.5556 7.60603 5.5556 6.78571C5.5556 6.20536 5.67278 5.65151 5.90716 5.12416C6.14153 4.59682 6.45837 4.14063 6.85768 3.75558C7.25698 3.37054 7.73008 3.06501 8.27695 2.83901C8.82383 2.613 9.39819 2.5 10 2.5C10.6019 2.5 11.1763 2.613 11.7231 2.83901C12.27 3.06501 12.7431 3.37054 13.1424 3.75558C13.5417 4.14063 13.8585 4.59682 14.0929 5.12416C14.3273 5.65151 14.4445 6.20536 14.4445 6.78571C14.4445 7.60603 14.2159 8.36496 13.7587 9.0625ZM10 3.57143C9.0799 3.57143 8.29431 3.88532 7.64327 4.51311C6.99223 5.1409 6.66671 5.89844 6.66671 6.78571C6.66671 7.67299 6.99223 8.43052 7.64327 9.05831C8.29431 9.6861 9.0799 10 10 10C10.9202 10 11.7058 9.6861 12.3568 9.05831C13.0079 8.43052 13.3334 7.67299 13.3334 6.78571C13.3334 5.89844 13.0079 5.1409 12.3568 4.51311C11.7058 3.88532 10.9202 3.57143 10 3.57143ZM13.7066 16.4286C14.2159 16.4286 14.6514 16.2291 15.0131 15.8301C15.3748 15.4311 15.5556 14.947 15.5556 14.3778C15.5556 13.0441 15.3285 11.9922 14.8742 11.2221C14.4199 10.452 13.7674 10.0474 12.9167 10.0084C12.0776 10.7171 11.1054 11.0714 10 11.0714C8.89472 11.0714 7.92249 10.7171 7.08337 10.0084C6.23268 10.0474 5.58019 10.452 5.12591 11.2221C4.67163 11.9922 4.44449 13.0441 4.44449 14.3778C4.44449 14.947 4.62533 15.4311 4.98702 15.8301C5.34871 16.2291 5.78418 16.4286 6.29344 16.4286H13.7066Z" fill="black" fill-opacity="0.8"/>
</svg>
