<svg width="34" height="35" viewBox="0 0 34 35" fill="none" xmlns="http://www.w3.org/2000/svg">
<rect width="34" height="35" fill="white"/>
<path fill-rule="evenodd" clip-rule="evenodd" d="M19.1496 12.1496L9.75633 12.1906C8.14819 10.6592 5.59447 10.6834 4.01924 12.2602C2.42842 13.8525 2.43975 16.4236 4.04454 18.0021C5.63339 19.5648 8.18765 19.5668 9.78223 18.0214L19.1496 17.9807V12.1496ZM6.93257 16.7962C7.38103 16.7942 7.81033 16.6156 8.12605 16.2996C8.44177 15.9836 8.61803 15.556 8.61607 15.1111C8.61411 14.6661 8.43409 14.2401 8.1156 13.9268C7.79711 13.6136 7.36624 13.4387 6.91779 13.4406C6.46934 13.4426 6.04003 13.6212 5.72431 13.9372C5.40859 14.2533 5.23233 14.6808 5.23429 15.1258C5.23625 15.5707 5.41628 15.9967 5.73477 16.31C6.05326 16.6232 6.48412 16.7981 6.93257 16.7962Z" fill="#AFAAA7"/>
<path d="M29.6072 18.8359C29.3944 19.0669 29.0365 19.3185 28.5335 19.5907C27.5217 20.1298 26.4372 20.3284 25.2802 20.1866C24.1232 20.0448 23.1239 19.5921 22.2823 18.8285C21.1782 17.8266 20.5925 16.5802 20.5253 15.0893C20.4582 13.5984 20.9294 12.3052 21.9391 11.2096C22.9488 10.114 24.2049 9.53283 25.7075 9.46619C27.2101 9.39956 28.5134 9.86717 29.6176 10.869C29.9638 11.1831 30.2813 11.561 30.5703 12.0026C30.8592 12.4442 31.0531 12.8729 31.152 13.2889C31.1875 13.4407 31.1588 13.5669 31.066 13.6676C30.9733 13.7683 30.8491 13.8079 30.6936 13.7864L26.6869 12.9075L24.853 14.8974L25.7049 17.4157C25.7512 17.425 26.1193 17.4953 26.8093 17.6266C27.4993 17.7579 28.1247 17.8849 28.6855 18.0077C29.2463 18.1305 29.5536 18.2163 29.6073 18.2651C29.6968 18.3463 29.7397 18.4395 29.7358 18.5448C29.732 18.65 29.6891 18.7471 29.6072 18.8359Z" fill="#AFAAA7"/>
<path d="M13.579 8.33398L14.0048 18.9016C14.0057 18.995 14.0251 19.0876 14.0621 19.1741C14.099 19.2605 14.1526 19.3391 14.2199 19.4053C14.2873 19.4715 14.3669 19.5241 14.4544 19.5599C14.5418 19.5958 14.6353 19.6143 14.7295 19.6143L19.3187 19.6244C19.4128 19.6246 19.5058 19.6064 19.5923 19.5708C19.6788 19.5352 19.7572 19.4829 19.823 19.4169C19.8887 19.351 19.9405 19.2726 19.9754 19.1864C20.0104 19.1001 20.0277 19.0076 20.0265 18.9142L20.2104 8.39273L13.579 8.33398Z" fill="#F37B2A"/>
<path d="M21.9695 30.6045L25.6581 30.6252C25.7211 30.6253 25.7833 30.613 25.8411 30.589C25.899 30.565 25.9513 30.5298 25.9951 30.4855C26.039 30.4412 26.0734 30.3886 26.0964 30.3307C26.1194 30.2729 26.1307 30.2109 26.1294 30.1484L26.0408 23.9194C26.0391 23.7944 25.9875 23.6744 25.8974 23.5858C25.8074 23.4972 25.686 23.4471 25.56 23.4465L21.8647 23.4274C21.6954 23.4262 21.528 23.4582 21.372 23.5216C21.2161 23.585 21.0748 23.6786 20.9562 23.7969C20.8376 23.9153 20.7441 24.056 20.681 24.211C20.6179 24.3661 20.5866 24.5324 20.5887 24.7003L20.5898 24.7246L20.5953 24.8732C20.5948 24.8833 20.5922 24.8932 20.5877 24.9023C20.5831 24.9114 20.5767 24.9194 20.5689 24.9258C20.342 24.8627 20.1393 24.7321 19.9883 24.5518C19.9306 24.4818 19.7341 24.2132 19.6036 23.6933C19.5422 23.4453 19.4762 22.2787 19.4234 21.3443C19.4158 21.2113 19.4086 21.0829 19.4016 20.9626C19.3942 20.8416 19.3404 20.7275 19.2513 20.6436C19.1621 20.5598 19.0444 20.5126 18.9223 20.5118L15.096 20.5037C14.979 20.5036 14.8667 20.546 14.7802 20.6231C14.6937 20.7001 14.6392 20.8063 14.627 20.9215C14.4799 22.3073 14.1801 23.4296 13.9952 23.5978C13.1631 24.3521 12.3942 24.6454 11.503 24.5477C10.9815 24.486 10.0434 24.1054 9.43564 23.5979C9.1504 23.3612 8.90153 23.0843 8.69714 22.7763C8.50788 22.4751 8.24772 22.0536 8.24772 22.0536L7.15569 21.7932C6.72822 22.3755 6.51748 23.0885 6.55881 23.8127C6.59853 24.5504 7.02764 26.1512 8.37294 27.4744C9.14833 28.2388 10.0651 28.8472 11.0715 29.2653C13.7199 30.3712 15.9863 30.5551 17.1013 30.5658L17.1081 30.5658C17.8637 30.5675 18.6177 30.514 19.3639 30.4057C20.004 30.3007 20.3834 29.8636 20.6353 29.5733L20.6375 29.5708C20.6416 29.5659 20.6458 29.5608 20.6501 29.5555C20.6606 29.5426 20.6718 29.5288 20.6846 29.5161C20.7312 29.7844 20.8615 30.0325 21.0571 30.2252C21.1772 30.3447 21.3196 30.4398 21.4762 30.5049C21.6328 30.57 21.8005 30.6038 21.9695 30.6045Z" fill="#F37B2A"/>
<path d="M7.57805 10.3677H8.96748V10.9651H7.57805V10.3677ZM7.09175 6.53814H9.4615V7.20449H7.09175V6.53814ZM6.93737 8.23082H11.6151V8.94312H6.93737V8.23082ZM7.77103 9.28012H9.36887V12.0604H7.77103V11.4324H8.651V9.91584H7.77103V9.28012ZM7.23069 9.28012H7.93313V12.5046H7.23069V9.28012ZM7.88681 5.84881H8.67416V6.99003H7.88681V5.84881ZM10.7969 9.22651L11.5379 9.38735C11.3115 10.1941 10.9899 10.9064 10.573 11.5243C10.1562 12.137 9.65705 12.6399 9.07555 13.0331C9.04467 12.9872 8.99578 12.9259 8.92888 12.8493C8.86713 12.7727 8.80023 12.6961 8.72819 12.6195C8.66129 12.5429 8.60211 12.4817 8.55065 12.4357C9.10642 12.1089 9.57214 11.6698 9.9478 11.1183C10.3286 10.5669 10.6116 9.93626 10.7969 9.22651ZM7.25385 7.31938L7.84822 7.17385C7.90482 7.32703 7.95114 7.49554 7.98716 7.67936C8.02833 7.85807 8.05149 8.01636 8.05663 8.15423L7.43139 8.30741C7.42624 8.17465 7.40566 8.01636 7.36964 7.83254C7.33876 7.64361 7.30017 7.47256 7.25385 7.31938ZM10.2874 6.46921L10.8895 6.15518C11.049 6.339 11.1983 6.5458 11.3372 6.77557C11.4762 7.00024 11.5817 7.20193 11.6537 7.38065L11.0053 7.73297C10.9487 7.55936 10.8509 7.35257 10.712 7.11258C10.573 6.87259 10.4315 6.65813 10.2874 6.46921ZM8.62784 7.17385L9.33028 7.30406C9.26852 7.48277 9.20934 7.65893 9.15274 7.83254C9.09613 8.00104 9.04467 8.14912 8.99836 8.27677L8.41943 8.14657C8.4606 8.0087 8.49919 7.84786 8.53521 7.66404C8.57638 7.48022 8.60726 7.31682 8.62784 7.17385ZM4.45956 6.11689H7.12263V6.92876H4.45956V6.11689ZM5.13111 7.75595H6.48195V8.49889H5.13111V7.75595ZM5.13111 9.31842H6.48195V10.069H5.13111V9.31842ZM4.76832 6.55346H5.51707V11.3634H4.76832V6.55346ZM6.0188 6.55346H6.79843V13.0255H6.0188V6.55346ZM4.30518 11.1949C4.58306 11.1541 4.90983 11.1005 5.28549 11.0341C5.6663 10.9677 6.05483 10.8988 6.45107 10.8273L6.51282 11.6009C6.15775 11.6774 5.80267 11.754 5.44759 11.8306C5.09252 11.9021 4.76317 11.9685 4.45956 12.0298L4.30518 11.1949ZM9.57728 5.8335H10.3955C10.3904 6.48197 10.3929 7.10747 10.4032 7.70999C10.4187 8.31251 10.4418 8.87163 10.4727 9.38735C10.5036 9.89796 10.5396 10.3447 10.5808 10.7277C10.6271 11.1107 10.6785 11.4119 10.7351 11.6315C10.7917 11.8459 10.8535 11.9532 10.9204 11.9532C10.9719 11.9532 11.0105 11.8689 11.0362 11.7004C11.0671 11.5319 11.0902 11.2945 11.1057 10.9881C11.152 11.0443 11.2137 11.1081 11.2909 11.1796C11.3681 11.2511 11.4453 11.3149 11.5225 11.3711C11.5997 11.4272 11.6614 11.4706 11.7077 11.5013C11.6408 11.9149 11.5585 12.2315 11.4607 12.451C11.3681 12.6706 11.2703 12.8187 11.1674 12.8953C11.0645 12.977 10.9693 13.0178 10.8818 13.0178C10.6657 13.0127 10.483 12.8978 10.3338 12.6731C10.1845 12.4485 10.061 12.1268 9.96324 11.7081C9.87061 11.2894 9.79599 10.7864 9.73939 10.1992C9.68792 9.60691 9.64933 8.94312 9.6236 8.20784C9.60301 7.47256 9.58758 6.68111 9.57728 5.8335Z" fill="black" fill-opacity="0.9"/>
<path d="M19.8657 15.2177L19.9837 15.9684C19.6929 15.8807 19.3846 15.771 19.0586 15.6391C18.7379 15.5059 18.4089 15.3608 18.0716 15.2039C17.7364 15.0437 17.4026 14.8776 17.0702 14.7056C16.7398 14.5303 16.4239 14.357 16.1224 14.1858C16.1595 14.1046 16.195 14.0042 16.229 13.8848C16.265 13.7621 16.2888 13.6591 16.3003 13.5757C16.5986 13.7449 16.9074 13.9115 17.2268 14.0756C17.5495 14.2416 17.8671 14.3978 18.1796 14.5441C18.4954 14.6923 18.7964 14.8248 19.0826 14.9413C19.3688 15.0579 19.6298 15.15 19.8657 15.2177ZM15.7254 14.6075L19.5721 16.9647L19.2206 17.5295L15.3738 15.1724L15.7254 14.6075ZM14.6771 15.5461L19.152 18.2881L18.7913 18.8677L14.3164 16.1256L14.6771 15.5461ZM17.7566 14.8887L18.3653 15.2617L16.3599 18.4838C16.2498 18.6606 16.144 18.7766 16.0423 18.8319C15.9418 18.8925 15.8162 18.9105 15.6656 18.8861C15.5254 18.859 15.3604 18.7963 15.1705 18.698C14.9838 18.6017 14.7665 18.4754 14.5186 18.3189C14.5435 18.2573 14.5637 18.1815 14.5794 18.0916C14.5962 18.0069 14.6108 17.9186 14.6232 17.8266C14.6335 17.738 14.6404 17.6585 14.6438 17.5882C14.7651 17.6671 14.8848 17.745 15.0028 17.8218C15.1209 17.8987 15.227 17.966 15.3212 18.0237C15.4153 18.0814 15.4818 18.1221 15.5208 18.146C15.578 18.1765 15.6241 18.189 15.6591 18.1832C15.694 18.1775 15.7268 18.1501 15.7573 18.101L17.7566 14.8887Z" fill="white"/>
<path d="M21.4669 25.6565H24.1812V26.3215H21.1439L21.4669 25.6565ZM22.2092 26.934H24.0395V27.5756H22.2092V26.934ZM22.2035 28.229H24.1132V28.8823H22.2035V28.229ZM21.8635 25.8781H22.5662V30.1773H21.8635V25.8781ZM21.5972 24.7581L22.2489 24.9331C22.1431 25.2481 22.0184 25.5612 21.8749 25.8723C21.7351 26.1834 21.5821 26.4751 21.4159 26.7473C21.2496 27.0156 21.0796 27.2529 20.9059 27.459C20.8719 27.4123 20.8227 27.3579 20.7585 27.2956C20.6943 27.2334 20.6282 27.1731 20.5602 27.1148C20.496 27.0526 20.4374 27.004 20.3845 26.969C20.5545 26.794 20.7132 26.5879 20.8605 26.3506C21.0116 26.1134 21.1495 25.8587 21.2742 25.5865C21.4026 25.3104 21.5103 25.0343 21.5972 24.7581ZM20.0955 24.7231L20.7529 24.939C20.632 25.2695 20.4884 25.602 20.3222 25.9365C20.156 26.2709 19.9746 26.5879 19.7782 26.8873C19.5817 27.1829 19.3796 27.4415 19.1719 27.6631C19.1492 27.6048 19.1152 27.529 19.0699 27.4356C19.0283 27.3423 18.983 27.247 18.9339 27.1498C18.8847 27.0526 18.8394 26.9748 18.7979 26.9165C18.9716 26.7376 19.1379 26.5315 19.2965 26.2981C19.459 26.0648 19.6082 25.814 19.7442 25.5456C19.884 25.2773 20.0011 25.0031 20.0955 24.7231ZM19.5232 26.339L20.2089 25.6331V30.1715H19.5232V26.339Z" fill="white"/>
<path d="M26.2472 11.5241L27.1214 11.3711C27.1443 11.5486 27.1697 11.7774 27.1978 12.0577C27.2258 12.338 27.2405 12.653 27.2417 13.0027C27.2464 13.3476 27.2245 13.7144 27.1761 14.1031C27.1276 14.4918 27.0369 14.8879 26.904 15.2914C26.7746 15.69 26.5876 16.0835 26.3431 16.4719C26.1022 16.8555 25.7894 17.2148 25.4048 17.55C25.3201 17.4655 25.2089 17.3791 25.0713 17.2908C24.9379 17.2019 24.8001 17.1245 24.6577 17.0586C25.0383 16.75 25.3454 16.4198 25.5789 16.0678C25.8124 15.7158 25.9906 15.3584 26.1133 14.9956C26.2353 14.6286 26.315 14.2689 26.3526 13.9167C26.3894 13.5603 26.402 13.2275 26.3906 12.9184C26.3792 12.6093 26.3565 12.3346 26.3225 12.0943C26.2885 11.8539 26.2634 11.6639 26.2472 11.5241ZM27.1199 11.5463C27.1383 11.6252 27.1691 11.7495 27.2123 11.919C27.2555 12.0886 27.3174 12.2895 27.3979 12.5217C27.4783 12.7539 27.5815 13.0037 27.7075 13.2712C27.8369 13.5337 27.9931 13.8002 28.1762 14.0706C28.3593 14.341 28.5729 14.5996 28.8171 14.8463C29.0613 15.0931 29.3418 15.3119 29.6588 15.5027C29.98 15.6927 30.3421 15.8432 30.745 15.9542C30.6382 16.0636 30.5424 16.1862 30.4577 16.322C30.3772 16.4571 30.3146 16.5826 30.2699 16.6984C29.8471 16.5737 29.4665 16.4048 29.1282 16.1918C28.7933 15.9739 28.4948 15.728 28.2328 15.4541C27.9742 15.1754 27.7486 14.8865 27.5561 14.5875C27.3636 14.2885 27.1976 13.9913 27.058 13.696C26.9219 13.3958 26.8088 13.1152 26.7189 12.8545C26.629 12.5937 26.5581 12.3663 26.5062 12.1723C26.4585 11.9776 26.4226 11.8369 26.3985 11.7504L27.1199 11.5463Z" fill="black" fill-opacity="0.9"/>
</svg>
