<svg width="34" height="35" viewBox="0 0 34 35" fill="none" xmlns="http://www.w3.org/2000/svg">
<path fill-rule="evenodd" clip-rule="evenodd" d="M19.1494 12.1496L9.75609 12.1906C8.14795 10.6592 5.59423 10.6834 4.019 12.2602C2.42817 13.8525 2.4395 16.4236 4.0443 18.0021C5.63315 19.5648 8.1874 19.5668 9.78199 18.0214L19.1494 17.9807V12.1496ZM6.93233 16.7962C7.38078 16.7942 7.81009 16.6156 8.1258 16.2996C8.44152 15.9836 8.61779 15.556 8.61583 15.1111C8.61387 14.6661 8.43384 14.2401 8.11535 13.9268C7.79686 13.6136 7.366 13.4387 6.91754 13.4406C6.46909 13.4426 6.03978 13.6212 5.72407 13.9372C5.40835 14.2533 5.23208 14.6808 5.23404 15.1258C5.236 15.5707 5.41603 15.9967 5.73452 16.31C6.05301 16.6232 6.48388 16.7981 6.93233 16.7962Z" fill="#AFAAA7"/>
<path d="M29.607 18.8359C29.3941 19.0669 29.0362 19.3185 28.5333 19.5907C27.5214 20.1298 26.437 20.3284 25.28 20.1866C24.1229 20.0448 23.1236 19.5921 22.2821 18.8285C21.1779 17.8266 20.5922 16.5802 20.5251 15.0893C20.4579 13.5984 20.9292 12.3052 21.9389 11.2096C22.9486 10.114 24.2047 9.53283 25.7073 9.46619C27.2098 9.39956 28.5132 9.86717 29.6174 10.869C29.9635 11.1831 30.2811 11.561 30.57 12.0026C30.859 12.4442 31.0529 12.8729 31.1518 13.2889C31.1872 13.4407 31.1586 13.5669 31.0658 13.6676C30.973 13.7683 30.8489 13.8079 30.6933 13.7864L26.6866 12.9075L24.8528 14.8974L25.7047 17.4157C25.7509 17.425 26.119 17.4953 26.809 17.6266C27.499 17.7579 28.1244 17.8849 28.6852 18.0077C29.2461 18.1305 29.5533 18.2163 29.607 18.2651C29.6966 18.3463 29.7394 18.4395 29.7356 18.5448C29.7317 18.65 29.6889 18.7471 29.607 18.8359Z" fill="#AFAAA7"/>
<path d="M13.579 8.33398L14.0048 18.9016C14.0057 18.995 14.0251 19.0876 14.0621 19.1741C14.099 19.2605 14.1526 19.3391 14.2199 19.4053C14.2873 19.4715 14.3669 19.5241 14.4544 19.5599C14.5418 19.5958 14.6353 19.6143 14.7295 19.6143L19.3187 19.6244C19.4128 19.6246 19.5058 19.6064 19.5923 19.5708C19.6788 19.5352 19.7572 19.4829 19.823 19.4169C19.8887 19.351 19.9405 19.2726 19.9754 19.1864C20.0104 19.1001 20.0277 19.0076 20.0265 18.9142L20.2104 8.39273L13.579 8.33398Z" fill="#F37B2A"/>
<path d="M21.9695 30.6045L25.6581 30.6252C25.7211 30.6253 25.7833 30.613 25.8411 30.589C25.899 30.565 25.9513 30.5298 25.9951 30.4855C26.039 30.4412 26.0734 30.3886 26.0964 30.3307C26.1195 30.2729 26.1307 30.2109 26.1294 30.1484L26.0408 23.9194C26.0391 23.7944 25.9875 23.6744 25.8974 23.5858C25.8074 23.4972 25.686 23.4471 25.56 23.4465L21.8647 23.4274C21.6954 23.4262 21.528 23.4582 21.372 23.5216C21.2161 23.585 21.0748 23.6786 20.9562 23.7969C20.8376 23.9153 20.7441 24.056 20.681 24.211C20.6179 24.3661 20.5866 24.5324 20.5887 24.7003L20.5898 24.7246L20.5953 24.8732C20.5948 24.8833 20.5922 24.8932 20.5877 24.9023C20.5831 24.9114 20.5767 24.9194 20.5689 24.9258C20.342 24.8627 20.1393 24.7321 19.9883 24.5518C19.9306 24.4818 19.7341 24.2132 19.6036 23.6933C19.5422 23.4453 19.4762 22.2787 19.4234 21.3443C19.4158 21.2113 19.4086 21.0829 19.4016 20.9626C19.3942 20.8416 19.3404 20.7275 19.2513 20.6436C19.1621 20.5598 19.0444 20.5126 18.9223 20.5118L15.096 20.5037C14.979 20.5036 14.8667 20.546 14.7802 20.6231C14.6937 20.7001 14.6392 20.8063 14.627 20.9215C14.4799 22.3073 14.1801 23.4296 13.9952 23.5978C13.1631 24.3521 12.3942 24.6454 11.503 24.5477C10.9815 24.486 10.0434 24.1054 9.43564 23.5979C9.1504 23.3612 8.90153 23.0843 8.69714 22.7763C8.50788 22.4751 8.24772 22.0536 8.24772 22.0536L7.15569 21.7932C6.72822 22.3755 6.51748 23.0885 6.55881 23.8127C6.59853 24.5504 7.02764 26.1512 8.37294 27.4744C9.14833 28.2388 10.0651 28.8472 11.0715 29.2653C13.7199 30.3712 15.9863 30.5551 17.1013 30.5658L17.1081 30.5658C17.8637 30.5675 18.6177 30.514 19.3639 30.4057C20.004 30.3007 20.3834 29.8636 20.6353 29.5733L20.6375 29.5708C20.6416 29.5659 20.6458 29.5608 20.6501 29.5555C20.6606 29.5426 20.6718 29.5288 20.6846 29.5161C20.7312 29.7844 20.8615 30.0325 21.0571 30.2252C21.1772 30.3447 21.3196 30.4398 21.4762 30.5049C21.6328 30.57 21.8005 30.6038 21.9695 30.6045Z" fill="#F37B2A"/>
<path d="M7.57781 10.3677H8.96724V10.9651H7.57781V10.3677ZM7.09151 6.53814H9.46126V7.20449H7.09151V6.53814ZM6.93713 8.23082H11.6149V8.94312H6.93713V8.23082ZM7.77078 9.28012H9.36863V12.0604H7.77078V11.4324H8.65075V9.91584H7.77078V9.28012ZM7.23045 9.28012H7.93288V12.5046H7.23045V9.28012ZM7.88657 5.84881H8.67391V6.99003H7.88657V5.84881ZM10.7967 9.22651L11.5377 9.38735C11.3113 10.1941 10.9896 10.9064 10.5728 11.5243C10.156 12.137 9.6568 12.6399 9.0753 13.0331C9.04443 12.9872 8.99554 12.9259 8.92864 12.8493C8.86689 12.7727 8.79999 12.6961 8.72795 12.6195C8.66105 12.5429 8.60187 12.4817 8.55041 12.4357C9.10618 12.1089 9.57189 11.6698 9.94755 11.1183C10.3284 10.5669 10.6114 9.93626 10.7967 9.22651ZM7.25361 7.31938L7.84797 7.17385C7.90458 7.32703 7.95089 7.49554 7.98692 7.67936C8.02809 7.85807 8.05124 8.01636 8.05639 8.15423L7.43115 8.30741C7.426 8.17465 7.40542 8.01636 7.36939 7.83254C7.33852 7.64361 7.29992 7.47256 7.25361 7.31938ZM10.2872 6.46921L10.8893 6.15518C11.0488 6.339 11.198 6.5458 11.337 6.77557C11.4759 7.00024 11.5814 7.20193 11.6535 7.38065L11.0051 7.73297C10.9485 7.55936 10.8507 7.35257 10.7117 7.11258C10.5728 6.87259 10.4313 6.65813 10.2872 6.46921ZM8.6276 7.17385L9.33003 7.30406C9.26828 7.48277 9.2091 7.65893 9.15249 7.83254C9.09589 8.00104 9.04443 8.14912 8.99811 8.27677L8.41918 8.14657C8.46035 8.0087 8.49895 7.84786 8.53497 7.66404C8.57614 7.48022 8.60701 7.31682 8.6276 7.17385ZM4.45931 6.11689H7.12238V6.92876H4.45931V6.11689ZM5.13087 7.75595H6.4817V8.49889H5.13087V7.75595ZM5.13087 9.31842H6.4817V10.069H5.13087V9.31842ZM4.76807 6.55346H5.51682V11.3634H4.76807V6.55346ZM6.01856 6.55346H6.79818V13.0255H6.01856V6.55346ZM4.30493 11.1949C4.58282 11.1541 4.90959 11.1005 5.28525 11.0341C5.66606 10.9677 6.05458 10.8988 6.45083 10.8273L6.51258 11.6009C6.1575 11.6774 5.80243 11.754 5.44735 11.8306C5.09227 11.9021 4.76293 11.9685 4.45931 12.0298L4.30493 11.1949ZM9.57704 5.8335H10.3953C10.3901 6.48197 10.3927 7.10747 10.403 7.70999C10.4184 8.31251 10.4416 8.87163 10.4724 9.38735C10.5033 9.89796 10.5393 10.3447 10.5805 10.7277C10.6268 11.1107 10.6783 11.4119 10.7349 11.6315C10.7915 11.8459 10.8533 11.9532 10.9202 11.9532C10.9716 11.9532 11.0102 11.8689 11.0359 11.7004C11.0668 11.5319 11.09 11.2945 11.1054 10.9881C11.1517 11.0443 11.2135 11.1081 11.2907 11.1796C11.3679 11.2511 11.445 11.3149 11.5222 11.3711C11.5994 11.4272 11.6612 11.4706 11.7075 11.5013C11.6406 11.9149 11.5583 12.2315 11.4605 12.451C11.3679 12.6706 11.2701 12.8187 11.1672 12.8953C11.0642 12.977 10.969 13.0178 10.8816 13.0178C10.6654 13.0127 10.4827 12.8978 10.3335 12.6731C10.1843 12.4485 10.0608 12.1268 9.96299 11.7081C9.87036 11.2894 9.79575 10.7864 9.73914 10.1992C9.68768 9.60692 9.64909 8.94312 9.62335 8.20784C9.60277 7.47256 9.58733 6.68111 9.57704 5.8335Z" fill="black" fill-opacity="0.9"/>
<path d="M19.8655 15.2177L19.9834 15.9684C19.6927 15.8807 19.3843 15.771 19.0584 15.6391C18.7377 15.5059 18.4087 15.3608 18.0714 15.2039C17.7361 15.0437 17.4023 14.8776 17.0699 14.7056C16.7396 14.5303 16.4236 14.357 16.1221 14.1858C16.1592 14.1046 16.1948 14.0042 16.2288 13.8848C16.2648 13.7621 16.2885 13.6591 16.3001 13.5757C16.5983 13.7449 16.9072 13.9115 17.2266 14.0756C17.5492 14.2416 17.8668 14.3978 18.1794 14.5441C18.4952 14.6923 18.7961 14.8248 19.0823 14.9413C19.3685 15.0579 19.6296 15.15 19.8655 15.2177ZM15.7251 14.6075L19.5719 16.9647L19.2203 17.5295L15.3736 15.1724L15.7251 14.6075ZM14.6769 15.5461L19.1518 18.2881L18.791 18.8677L14.3162 16.1256L14.6769 15.5461ZM17.7564 14.8887L18.365 15.2617L16.3596 18.4838C16.2496 18.6606 16.1437 18.7766 16.042 18.8319C15.9416 18.8925 15.816 18.9105 15.6653 18.8861C15.5252 18.859 15.3602 18.7963 15.1702 18.698C14.9835 18.6017 14.7662 18.4754 14.5183 18.3189C14.5432 18.2573 14.5635 18.1815 14.5791 18.0916C14.5959 18.0069 14.6105 17.9186 14.6229 17.8266C14.6333 17.738 14.6401 17.6585 14.6435 17.5882C14.7648 17.6671 14.8845 17.745 15.0026 17.8218C15.1207 17.8987 15.2268 17.966 15.3209 18.0237C15.415 18.0814 15.4816 18.1221 15.5205 18.146C15.5778 18.1765 15.6239 18.189 15.6588 18.1832C15.6938 18.1775 15.7265 18.1501 15.7571 18.101L17.7564 14.8887Z" fill="white"/>
<path d="M21.4664 25.6565H24.1807V26.3215H21.1434L21.4664 25.6565ZM22.2087 26.934H24.039V27.5756H22.2087V26.934ZM22.203 28.229H24.1127V28.8823H22.203V28.229ZM21.863 25.8781H22.5657V30.1773H21.863V25.8781ZM21.5967 24.7581L22.2484 24.9331C22.1426 25.2481 22.0179 25.5612 21.8744 25.8723C21.7346 26.1834 21.5816 26.4751 21.4154 26.7473C21.2491 27.0156 21.0791 27.2529 20.9054 27.459C20.8714 27.4123 20.8223 27.3579 20.758 27.2956C20.6938 27.2334 20.6277 27.1731 20.5597 27.1148C20.4955 27.0526 20.4369 27.004 20.384 26.969C20.554 26.794 20.7127 26.5879 20.86 26.3506C21.0111 26.1134 21.149 25.8587 21.2737 25.5865C21.4021 25.3104 21.5098 25.0343 21.5967 24.7581ZM20.095 24.7231L20.7524 24.939C20.6315 25.2695 20.4879 25.602 20.3217 25.9365C20.1555 26.2709 19.9741 26.5879 19.7777 26.8873C19.5813 27.1829 19.3791 27.4415 19.1714 27.6631C19.1487 27.6048 19.1147 27.529 19.0694 27.4356C19.0278 27.3423 18.9825 27.247 18.9334 27.1498C18.8843 27.0526 18.8389 26.9748 18.7974 26.9165C18.9711 26.7376 19.1374 26.5315 19.296 26.2981C19.4585 26.0648 19.6077 25.814 19.7437 25.5456C19.8835 25.2773 20.0006 25.0031 20.095 24.7231ZM19.5227 26.339L20.2084 25.6331V30.1715H19.5227V26.339Z" fill="white"/>
<path d="M26.247 11.5241L27.1212 11.3711C27.144 11.5486 27.1695 11.7774 27.1975 12.0577C27.2256 12.338 27.2402 12.653 27.2415 13.0027C27.2462 13.3476 27.2243 13.7144 27.1758 14.1031C27.1274 14.4918 27.0367 14.8879 26.9038 15.2914C26.7743 15.69 26.5874 16.0835 26.3429 16.4719C26.1019 16.8555 25.7891 17.2148 25.4046 17.55C25.3199 17.4655 25.2087 17.3791 25.0711 17.2908C24.9377 17.2019 24.7998 17.1245 24.6575 17.0586C25.0381 16.75 25.3451 16.4198 25.5787 16.0678C25.8122 15.7158 25.9903 15.3584 26.1131 14.9956C26.235 14.6286 26.3148 14.2689 26.3523 13.9167C26.3891 13.5603 26.4018 13.2275 26.3904 12.9184C26.379 12.6093 26.3563 12.3346 26.3222 12.0943C26.2882 11.8539 26.2631 11.6639 26.247 11.5241ZM27.1197 11.5463C27.1381 11.6252 27.1689 11.7495 27.2121 11.919C27.2553 12.0886 27.3171 12.2895 27.3976 12.5217C27.4781 12.7539 27.5813 13.0037 27.7072 13.2712C27.8366 13.5337 27.9929 13.8002 28.176 14.0706C28.359 14.341 28.5727 14.5996 28.8168 14.8463C29.061 15.0931 29.3416 15.3119 29.6586 15.5027C29.9798 15.6927 30.3418 15.8432 30.7448 15.9542C30.6379 16.0636 30.5422 16.1862 30.4574 16.322C30.377 16.4571 30.3143 16.5826 30.2696 16.6984C29.8468 16.5737 29.4663 16.4048 29.1279 16.1918C28.7931 15.9739 28.4946 15.728 28.2325 15.4541C27.9739 15.1754 27.7484 14.8865 27.5559 14.5875C27.3634 14.2885 27.1973 13.9913 27.0577 13.696C26.9216 13.3958 26.8086 13.1152 26.7187 12.8545C26.6288 12.5937 26.5579 12.3663 26.5059 12.1723C26.4583 11.9776 26.4224 11.8369 26.3983 11.7504L27.1197 11.5463Z" fill="black" fill-opacity="0.9"/>
</svg>
