<svg width="16" height="16" viewBox="0 0 16 16" fill="none" xmlns="http://www.w3.org/2000/svg">
<path d="M7.49927 12.4225L4.60964 13.8855C4.43785 13.9722 4.24428 14.011 4.05082 13.9973C3.85735 13.9837 3.6717 13.9183 3.51484 13.8084C3.35798 13.6985 3.23617 13.5486 3.16318 13.3755C3.09019 13.2025 3.06892 13.0133 3.10178 12.8292L3.65293 9.73051L1.31445 7.53664C1.17532 7.40621 1.07689 7.24088 1.03033 7.05936C0.983772 6.87785 0.990931 6.68742 1.051 6.50962C1.11107 6.33182 1.22165 6.17377 1.37021 6.05337C1.51877 5.93297 1.69939 5.85502 1.8916 5.82835L5.12309 5.37782L6.56725 2.5582C6.65185 2.38981 6.78433 2.24798 6.94931 2.14917C7.11428 2.05037 7.30498 1.99866 7.49927 2.00004C7.69377 1.99842 7.88475 2.05002 8.04998 2.14884C8.21521 2.24765 8.34789 2.38962 8.43258 2.5582L9.87804 5.37656L13.1095 5.82835C13.3016 5.85521 13.4821 5.9333 13.6305 6.05378C13.7789 6.17426 13.8893 6.33233 13.9492 6.51009C14.0091 6.68786 14.0162 6.87822 13.9696 7.05964C13.9229 7.24106 13.8245 7.40629 13.6854 7.53664L11.3469 9.73051L11.8994 12.8292C11.9322 13.0133 11.9109 13.2025 11.838 13.3755C11.765 13.5486 11.6431 13.6985 11.4863 13.8084C11.3294 13.9183 11.1438 13.9837 10.9503 13.9973C10.7569 14.011 10.5633 13.9722 10.3915 13.8855L7.49927 12.4225Z" fill="black"/>
</svg>
