<svg width="16" height="16" viewBox="0 0 16 16" fill="none" xmlns="http://www.w3.org/2000/svg">
<path d="M6.82535 2.64183L1.17868 12.0685C1.06226 12.2701 1.00066 12.4987 1.00001 12.7315C0.999353 12.9643 1.05967 13.1932 1.17496 13.3955C1.29025 13.5978 1.4565 13.7663 1.65715 13.8844C1.85781 14.0025 2.08588 14.0659 2.31868 14.0685H13.612C13.8448 14.0659 14.0729 14.0025 14.2735 13.8844C14.4742 13.7663 14.6404 13.5978 14.7557 13.3955C14.871 13.1932 14.9313 12.9643 14.9307 12.7315C14.93 12.4987 14.8684 12.2701 14.752 12.0685L9.10535 2.64183C8.9865 2.4459 8.81916 2.28391 8.61948 2.17149C8.41979 2.05906 8.1945 2 7.96535 2C7.73619 2 7.5109 2.05906 7.31122 2.17149C7.11153 2.28391 6.94419 2.4459 6.82535 2.64183Z" stroke="black" stroke-opacity="0.9" stroke-width="1.33333" stroke-linecap="round" stroke-linejoin="round"/>
<path d="M7.96533 6.06848V8.73515" stroke="black" stroke-opacity="0.9" stroke-width="1.33333" stroke-linecap="round" stroke-linejoin="round"/>
<path d="M7.96533 11.4019H7.972" stroke="black" stroke-opacity="0.9" stroke-width="1.33333" stroke-linecap="round" stroke-linejoin="round"/>
</svg>
