<svg width="96" height="96" viewBox="0 0 96 96" fill="none" xmlns="http://www.w3.org/2000/svg">
<g clip-path="url(#clip0_40_7200)">
<rect width="96" height="96" rx="48" fill="white"/>
<path fill-rule="evenodd" clip-rule="evenodd" d="M54.0693 33.3238L27.5471 33.4365C23.0064 29.236 15.7959 29.3023 11.3482 33.6271C6.8565 37.9948 6.88848 45.0468 11.4197 49.3763C15.9058 53.6628 23.1179 53.6682 27.6202 49.4295L54.0693 49.3177V33.3238ZM19.5741 46.0688C20.8403 46.0635 22.0525 45.5735 22.9439 44.7067C23.8354 43.8399 24.3331 42.6673 24.3275 41.4468C24.322 40.2262 23.8137 39.0579 22.9144 38.1986C22.0151 37.3394 20.7986 36.8597 19.5324 36.865C18.2661 36.8704 17.054 37.3604 16.1625 38.2272C15.2711 39.094 14.7734 40.2666 14.7789 41.4871C14.7845 42.7076 15.2928 43.876 16.1921 44.7352C17.0913 45.5945 18.3079 46.0742 19.5741 46.0688Z" fill="#AFAAA7"/>
<path d="M83.597 51.6636C82.996 52.2971 81.9854 52.9872 80.5653 53.7339C77.7083 55.2124 74.6463 55.7572 71.3794 55.3682C68.1125 54.9793 65.291 53.7376 62.9148 51.6432C59.7972 48.8952 58.1435 45.4766 57.9539 41.3872C57.7643 37.2979 59.0949 33.7507 61.9458 30.7456C64.7967 27.7405 68.3434 26.1465 72.5859 25.9638C76.8285 25.781 80.5085 27.0636 83.6262 29.8115C84.6036 30.673 85.5003 31.7094 86.3161 32.9207C87.132 34.1319 87.6795 35.308 87.9587 36.4489C88.0588 36.8652 87.9779 37.2114 87.7159 37.4876C87.454 37.7637 87.1034 37.8723 86.6642 37.8133L75.3512 35.4029L70.1733 40.8608L72.5787 47.7681C72.7092 47.7936 73.7486 47.9865 75.6968 48.3465C77.645 48.7066 79.4109 49.0551 80.9944 49.392C82.5778 49.7288 83.4454 49.9641 83.5971 50.0978C83.8499 50.3206 83.9708 50.5763 83.96 50.865C83.9491 51.1537 83.8281 51.4199 83.597 51.6636Z" fill="#AFAAA7"/>
<path d="M38.3412 22.8575L39.5435 51.8429C39.5459 52.0992 39.6008 52.3532 39.705 52.5903C39.8093 52.8274 39.9608 53.043 40.1509 53.2246C40.3409 53.4062 40.5659 53.5504 40.8128 53.6488C41.0597 53.7471 41.3236 53.7978 41.5896 53.7979L54.5472 53.8256C54.813 53.8261 55.0755 53.7761 55.3198 53.6785C55.5642 53.5808 55.7855 53.4374 55.9711 53.2565C56.1568 53.0756 56.3031 52.8606 56.4017 52.624C56.5003 52.3875 56.5492 52.1338 56.5457 51.8777L57.0652 23.0187L38.3412 22.8575Z" fill="#F37B2A"/>
<path d="M62.032 83.9423L72.4469 83.9992C72.6247 83.9994 72.8003 83.9656 72.9637 83.8998C73.127 83.8341 73.2748 83.7376 73.3985 83.6161C73.5222 83.4945 73.6194 83.3502 73.6844 83.1915C73.7495 83.0328 73.7811 82.8628 73.7775 82.6914L73.5275 65.6062C73.5226 65.2632 73.377 64.9342 73.1226 64.6912C72.8682 64.4481 72.5257 64.3107 72.1698 64.309L61.736 64.2566C61.258 64.2533 60.7852 64.3411 60.345 64.5151C59.9047 64.689 59.5057 64.9457 59.1708 65.2702C58.836 65.5947 58.5719 65.9808 58.3938 66.406C58.2158 66.8313 58.1272 67.2874 58.1333 67.7481L58.1364 67.8147L58.1518 68.2221C58.1505 68.25 58.1432 68.2772 58.1304 68.3021C58.1175 68.327 58.0994 68.3489 58.0772 68.3666C57.4367 68.1935 56.8644 67.8354 56.4381 67.3407C56.2752 67.1488 55.7204 66.412 55.3518 64.986C55.1785 64.3056 54.9921 61.106 54.8429 58.543C54.8216 58.1781 54.8011 57.826 54.7815 57.4959C54.7606 57.1642 54.6087 56.8511 54.3569 56.6211C54.1052 56.3911 53.7728 56.2617 53.4281 56.2596L42.6243 56.2374C42.2941 56.237 41.9768 56.3535 41.7327 56.5648C41.4886 56.776 41.3347 57.0674 41.3002 57.3834C40.8848 61.1844 40.0385 64.2627 39.5162 64.7241C37.1667 66.7929 34.9958 67.5975 32.4794 67.3296C31.0071 67.1602 28.3581 66.1162 26.6422 64.7242C25.8368 64.0749 25.1341 63.3155 24.557 62.4707C24.0226 61.6445 23.2881 60.4886 23.2881 60.4886L20.2047 59.7742C18.9977 61.3714 18.4027 63.3271 18.5194 65.3134C18.6316 67.3368 19.8431 71.7275 23.6417 75.357C25.831 77.4537 28.4194 79.1225 31.261 80.2692C38.7389 83.3025 45.1382 83.8068 48.2865 83.8362L48.3055 83.8362C50.439 83.8409 52.568 83.6942 54.6751 83.3971C56.4823 83.109 57.5535 81.9101 58.2649 81.1139L58.271 81.1071C58.2826 81.0938 58.2944 81.0797 58.3065 81.0652C58.3362 81.0298 58.3679 80.992 58.4039 80.957C58.5355 81.693 58.9035 82.3734 59.4557 82.902C59.7948 83.2299 60.197 83.4906 60.6392 83.6692C61.0814 83.8478 61.5548 83.9406 62.032 83.9423Z" fill="#F37B2A"/>
<path d="M21.3968 28.4365H25.3199V30.0751H21.3968V28.4365ZM20.0237 17.9325H26.7148V19.7602H20.0237V17.9325ZM19.5878 22.5753H32.7956V24.529H19.5878V22.5753ZM21.9417 25.4534H26.4533V33.0793H21.9417V31.3566H24.4263V27.197H21.9417V25.4534ZM20.416 25.4534H22.3994V34.2977H20.416V25.4534ZM22.2686 16.0418H24.4917V19.172H22.2686V16.0418ZM30.4853 25.3063L32.5776 25.7475C31.9383 27.9603 31.0302 29.9141 29.8533 31.6087C28.6763 33.2894 27.2669 34.6689 25.625 35.7473C25.5379 35.6212 25.3998 35.4532 25.2109 35.2431C25.0366 35.033 24.8477 34.8229 24.6443 34.6129C24.4554 34.4028 24.2883 34.2347 24.143 34.1087C25.7122 33.2123 27.0272 32.0079 28.0879 30.4953C29.1631 28.9827 29.9622 27.253 30.4853 25.3063ZM20.4814 20.0753L22.1596 19.6762C22.3195 20.0963 22.4502 20.5585 22.552 21.0627C22.6682 21.5529 22.7336 21.987 22.7481 22.3652L20.9827 22.7853C20.9682 22.4212 20.9101 21.987 20.8084 21.4828C20.7212 20.9647 20.6122 20.4955 20.4814 20.0753ZM29.0469 17.7434L30.7469 16.8821C31.1973 17.3863 31.6187 17.9535 32.011 18.5837C32.4033 19.2 32.7011 19.7532 32.9046 20.2434L31.0738 21.2097C30.914 20.7336 30.6379 20.1663 30.2456 19.5081C29.8533 18.8498 29.4537 18.2616 29.0469 17.7434ZM24.3609 19.6762L26.3443 20.0333C26.1699 20.5235 26.0028 21.0067 25.843 21.4828C25.6832 21.945 25.5379 22.3512 25.4071 22.7013L23.7725 22.3442C23.8887 21.966 23.9977 21.5249 24.0994 21.0207C24.2156 20.5165 24.3028 20.0683 24.3609 19.6762ZM12.5917 16.7771H20.1109V19.0039H12.5917V16.7771ZM14.4878 21.2728H18.3019V23.3105H14.4878V21.2728ZM14.4878 25.5584H18.3019V27.6172H14.4878V25.5584ZM13.4635 17.9745H15.5776V31.1675H13.4635V17.9745ZM16.9942 17.9745H19.1955V35.7263H16.9942V17.9745ZM12.1558 30.7054C12.9404 30.5933 13.863 30.4463 14.9237 30.2642C15.9989 30.0821 17.096 29.8931 18.2148 29.697L18.3891 31.8188C17.3866 32.0289 16.384 32.239 15.3814 32.449C14.3788 32.6451 13.4489 32.8272 12.5917 32.9952L12.1558 30.7054ZM27.0417 15.9998H29.352C29.3375 17.7784 29.3447 19.4941 29.3738 21.1467C29.4174 22.7994 29.4827 24.3329 29.5699 25.7475C29.6571 27.148 29.7588 28.3735 29.8751 29.4239C30.0058 30.4743 30.1511 31.3006 30.311 31.9028C30.4708 32.491 30.6451 32.7852 30.834 32.7852C30.9793 32.7852 31.0883 32.5541 31.161 32.0919C31.2481 31.6297 31.3135 30.9785 31.3571 30.1382C31.4879 30.2922 31.6622 30.4673 31.8802 30.6634C32.0981 30.8594 32.3161 31.0345 32.534 31.1886C32.752 31.3426 32.9264 31.4617 33.0571 31.5457C32.8682 32.6801 32.6358 33.5485 32.3597 34.1507C32.0981 34.7529 31.8221 35.1591 31.5315 35.3691C31.2409 35.5932 30.9721 35.7053 30.7251 35.7053C30.1148 35.6913 29.599 35.3762 29.1776 34.7599C28.7563 34.1437 28.4075 33.2613 28.1315 32.1129C27.8699 30.9645 27.6592 29.5849 27.4994 27.9743C27.3541 26.3497 27.2451 24.529 27.1725 22.5122C27.1144 20.4955 27.0708 18.3246 27.0417 15.9998Z" fill="black" fill-opacity="0.8"/>
<path d="M56.0911 41.7389L56.4241 43.7981C55.6033 43.5577 54.7327 43.2565 53.8123 42.8948C52.9068 42.5295 51.9779 42.1316 51.0255 41.7012C50.0789 41.2617 49.1363 40.8061 48.1978 40.3343C47.265 39.8535 46.373 39.3783 45.5216 38.9088C45.6265 38.6859 45.7269 38.4106 45.8228 38.0831C45.9244 37.7466 45.9915 37.464 46.0241 37.2352C46.8663 37.6993 47.7383 38.1564 48.6402 38.6064C49.5512 39.0618 50.4479 39.4901 51.3304 39.8914C52.222 40.298 53.0718 40.6612 53.8799 40.981C54.688 41.3007 55.425 41.5533 56.0911 41.7389ZM44.4008 40.0654L55.2621 46.5307L54.2695 48.08L43.4082 41.6147L44.4008 40.0654ZM41.441 42.6397L54.0759 50.1608L53.0574 51.7505L40.4225 44.2294L41.441 42.6397ZM50.136 40.8367L51.8545 41.8597L46.1923 50.6974C45.8816 51.1824 45.5826 51.5007 45.2956 51.6524C45.0119 51.8185 44.6573 51.868 44.2319 51.8008C43.8362 51.7266 43.3703 51.5547 42.834 51.2851C42.3069 51.021 41.6933 50.6743 40.9933 50.2453C41.0636 50.0762 41.1208 49.8683 41.1649 49.6216C41.2125 49.3894 41.2537 49.1472 41.2886 48.895C41.3178 48.6519 41.3372 48.4339 41.3468 48.2411C41.6893 48.4574 42.0273 48.6709 42.3606 48.8818C42.694 49.0927 42.9936 49.2772 43.2594 49.4354C43.5252 49.5936 43.7131 49.7055 43.8231 49.771C43.9847 49.8547 44.1148 49.8888 44.2135 49.8731C44.3122 49.8574 44.4047 49.7822 44.491 49.6474L50.136 40.8367Z" fill="white"/>
<path d="M60.6113 70.3719H68.2753V72.1959H59.6993L60.6113 70.3719ZM62.7073 73.8759H67.8753V75.6359H62.7073V73.8759ZM62.6913 77.4279H68.0833V79.2199H62.6913V77.4279ZM61.7313 70.9799H63.7153V82.7719H61.7313V70.9799ZM60.9793 67.9079L62.8193 68.3879C62.5207 69.2519 62.1687 70.1106 61.7633 70.9639C61.3687 71.8172 60.9367 72.6172 60.4673 73.3639C59.998 74.0999 59.518 74.7506 59.0273 75.3159C58.9313 75.1879 58.7927 75.0386 58.6113 74.8679C58.43 74.6972 58.2433 74.5319 58.0513 74.3719C57.87 74.2012 57.7047 74.0679 57.5553 73.9719C58.0353 73.4919 58.4833 72.9266 58.8993 72.2759C59.326 71.6252 59.7153 70.9266 60.0673 70.1799C60.43 69.4226 60.734 68.6652 60.9793 67.9079ZM56.7393 67.8119L58.5953 68.4039C58.254 69.3106 57.8487 70.2226 57.3793 71.1399C56.91 72.0572 56.398 72.9266 55.8433 73.7479C55.2887 74.5586 54.718 75.2679 54.1313 75.8759C54.0673 75.7159 53.9713 75.5079 53.8433 75.2519C53.726 74.9959 53.598 74.7346 53.4593 74.4679C53.3207 74.2012 53.1927 73.9879 53.0753 73.8279C53.566 73.3372 54.0353 72.7719 54.4833 72.1319C54.942 71.4919 55.3633 70.8039 55.7473 70.0679C56.142 69.3319 56.4727 68.5799 56.7393 67.8119ZM55.1233 72.2439L57.0593 70.3079V82.7559H55.1233V72.2439Z" fill="white"/>
<path d="M74.1103 31.6093L76.5786 31.1896C76.6431 31.6764 76.7149 32.3041 76.7942 33.0728C76.8734 33.8416 76.9147 34.7056 76.9182 35.665C76.9315 36.6108 76.8697 37.6168 76.7329 38.683C76.596 39.7492 76.3399 40.8357 75.9646 41.9424C75.5991 43.0356 75.0713 44.115 74.381 45.1805C73.7006 46.2324 72.8175 47.2181 71.7316 48.1376C71.4925 47.9057 71.1786 47.6687 70.79 47.4266C70.4134 47.1825 70.0241 46.9702 69.6222 46.7897C70.6968 45.9433 71.5638 45.0373 72.2232 44.0719C72.8826 43.1065 73.3855 42.1262 73.7321 41.131C74.0765 40.1243 74.3017 39.1379 74.4077 38.1718C74.5115 37.1942 74.5474 36.2814 74.5151 35.4336C74.4829 34.5858 74.4188 33.8323 74.3227 33.1731C74.2267 32.5139 74.1558 31.9927 74.1103 31.6093ZM76.5743 31.6703C76.6262 31.8866 76.7132 32.2274 76.8352 32.6925C76.9572 33.1577 77.1319 33.7087 77.3591 34.3456C77.5863 34.9825 77.8777 35.6677 78.2333 36.4013C78.5987 37.1213 79.0398 37.8522 79.5568 38.5939C80.0737 39.3356 80.6768 40.0449 81.3663 40.7217C82.0558 41.3984 82.848 41.9985 83.743 42.5219C84.6499 43.0432 85.6722 43.456 86.8098 43.7603C86.5082 44.0604 86.2378 44.3968 85.9986 44.7693C85.7713 45.1398 85.5945 45.4839 85.4683 45.8016C84.2745 45.4595 83.1999 44.9963 82.2446 44.4121C81.2992 43.8144 80.4564 43.14 79.7165 42.3888C78.9864 41.6241 78.3495 40.8317 77.806 40.0116C77.2624 39.1915 76.7935 38.3764 76.3994 37.5664C76.015 36.7429 75.6959 35.9735 75.4421 35.2582C75.1882 34.5429 74.988 33.9192 74.8414 33.3871C74.7068 32.853 74.6054 32.4673 74.5374 32.23L76.5743 31.6703Z" fill="black" fill-opacity="0.8"/>
</g>
<rect x="0.24" y="0.24" width="95.52" height="95.52" rx="47.76" stroke="black" stroke-opacity="0.4" stroke-width="0.48"/>
<defs>
<clipPath id="clip0_40_7200">
<rect width="96" height="96" rx="48" fill="white"/>
</clipPath>
</defs>
</svg>
