<svg width="320" height="180" viewBox="0 0 320 180" fill="none" xmlns="http://www.w3.org/2000/svg">
<rect width="320" height="180" rx="4" fill="#CECBC9"/>
<path d="M298 18H274C271.791 18 270 19.7909 270 22V46C270 46.2242 270.018 46.444 270.054 46.658C270.368 48.554 272.015 50 274 50H298C300.209 50 302 48.2092 302 46V38.3802V22C302 19.7909 300.209 18 298 18Z" stroke="#736B66" stroke-width="3" stroke-linecap="round" stroke-linejoin="round"/>
<path d="M284 28C284 30.2092 282.209 32 280 32C277.791 32 276 30.2092 276 28C276 25.7909 277.791 24 280 24C282.209 24 284 25.7909 284 28Z" stroke="#736B66" stroke-width="3" stroke-linecap="round" stroke-linejoin="round"/>
<path d="M270.054 46.658L277.695 39.0166C279.055 37.8266 281.044 37.6964 282.548 38.6988L283.566 39.3776C285.015 40.3438 286.924 40.261 288.284 39.173L293.58 34.9358C294.93 33.8558 296.81 33.7712 298.245 34.6968C298.404 34.7994 298.546 34.9264 298.68 35.0604L302 38.3802" stroke="#736B66" stroke-width="3" stroke-linecap="round" stroke-linejoin="round"/>
</svg>
