<svg width="24" height="24" viewBox="0 0 24 24" fill="none" xmlns="http://www.w3.org/2000/svg">
<circle cx="12" cy="12" r="12" fill="white"/>
<path fill-rule="evenodd" clip-rule="evenodd" d="M13.5173 8.33104L6.88671 8.35921C5.75155 7.3091 3.94892 7.32567 2.837 8.40688C1.71406 9.49878 1.72206 11.2618 2.85486 12.3442C3.9764 13.4158 5.7794 13.4171 6.90499 12.3575L13.5173 12.3295V8.33104ZM4.89347 11.5173C5.21002 11.516 5.51306 11.3935 5.73592 11.1768C5.95878 10.9601 6.0832 10.6669 6.08182 10.3618C6.08044 10.0567 5.95336 9.76456 5.72854 9.54975C5.50372 9.33494 5.19958 9.21501 4.88303 9.21635C4.56647 9.21769 4.26343 9.34018 4.04058 9.55688C3.81772 9.77358 3.69329 10.0667 3.69468 10.3719C3.69606 10.677 3.82314 10.9691 4.04795 11.1839C4.27277 11.3987 4.57691 11.5186 4.89347 11.5173Z" fill="#AFAAA7"/>
<path d="M20.8992 12.9161C20.749 13.0745 20.4963 13.247 20.1413 13.4337C19.427 13.8033 18.6616 13.9395 17.8448 13.8422C17.0281 13.745 16.3227 13.4346 15.7287 12.911C14.9493 12.224 14.5358 11.3693 14.4884 10.347C14.441 9.32466 14.7737 8.43785 15.4864 7.68658C16.1991 6.9353 17.0858 6.53682 18.1465 6.49112C19.2071 6.44543 20.1271 6.76607 20.9065 7.45306C21.1509 7.66845 21.375 7.92754 21.579 8.23035C21.783 8.53316 21.9198 8.82718 21.9896 9.1124C22.0147 9.21648 21.9944 9.30304 21.9289 9.37208C21.8635 9.44112 21.7758 9.46826 21.666 9.45352L18.8378 8.8509L17.5433 10.2154L18.1446 11.9422C18.1773 11.9486 18.4371 11.9968 18.9242 12.0868C19.4112 12.1768 19.8527 12.264 20.2486 12.3482C20.6444 12.4324 20.8613 12.4912 20.8992 12.5246C20.9624 12.5803 20.9927 12.6443 20.99 12.7164C20.9872 12.7886 20.957 12.8552 20.8992 12.9161Z" fill="#AFAAA7"/>
<path d="M9.58527 5.71458L9.88583 12.9609C9.88644 13.025 9.90017 13.0885 9.92623 13.1478C9.95228 13.2071 9.99016 13.2609 10.0377 13.3063C10.0852 13.3518 10.1414 13.3878 10.2032 13.4124C10.2649 13.437 10.3309 13.4497 10.3974 13.4497L13.6368 13.4566C13.7032 13.4567 13.7688 13.4442 13.8299 13.4198C13.891 13.3954 13.9463 13.3596 13.9928 13.3143C14.0392 13.2691 14.0757 13.2154 14.1004 13.1562C14.125 13.0971 14.1373 13.0337 14.1364 12.9696L14.2663 5.75487L9.58527 5.71458Z" fill="#F37B2A"/>
<path d="M15.508 20.9858L18.1117 21C18.1561 21 18.2001 20.9916 18.2409 20.9752C18.2817 20.9587 18.3187 20.9346 18.3496 20.9042C18.3805 20.8738 18.4048 20.8377 18.4211 20.7981C18.4373 20.7584 18.4452 20.7159 18.4443 20.6731L18.3818 16.4017C18.3806 16.316 18.3442 16.2338 18.2806 16.173C18.217 16.1122 18.1314 16.0779 18.0424 16.0774L15.434 16.0644C15.3145 16.0635 15.1963 16.0855 15.0862 16.129C14.9762 16.1725 14.8764 16.2366 14.7927 16.3177C14.709 16.3989 14.6429 16.4954 14.5984 16.6017C14.5539 16.708 14.5318 16.8221 14.5333 16.9372L14.5341 16.9539L14.5379 17.0557C14.5376 17.0627 14.5358 17.0695 14.5326 17.0757C14.5293 17.0819 14.5248 17.0874 14.5193 17.0918C14.3591 17.0486 14.2161 16.959 14.1095 16.8354C14.0688 16.7874 13.9301 16.6032 13.8379 16.2467C13.7946 16.0766 13.748 15.2767 13.7107 14.636C13.7054 14.5447 13.7003 14.4567 13.6954 14.3742C13.6901 14.2912 13.6521 14.213 13.5892 14.1555C13.5263 14.098 13.4432 14.0656 13.357 14.0651L10.6561 14.0596C10.5735 14.0594 10.4942 14.0886 10.4332 14.1414C10.3721 14.1942 10.3336 14.267 10.325 14.3461C10.2212 15.2963 10.0096 16.0659 9.87903 16.1812C9.29165 16.6984 8.74892 16.8996 8.11982 16.8326C7.75174 16.7902 7.0895 16.5292 6.66052 16.1812C6.45918 16.0189 6.2835 15.8291 6.13923 15.6179C6.00563 15.4113 5.82199 15.1223 5.82199 15.1223L5.05114 14.9438C4.7494 15.343 4.60064 15.832 4.62982 16.3286C4.65786 16.8344 4.96076 17.9321 5.91039 18.8394C6.45772 19.3636 7.10483 19.7808 7.81523 20.0675C9.6847 20.8258 11.2845 20.9519 12.0716 20.9592L12.0763 20.9592C12.6097 20.9604 13.142 20.9237 13.6687 20.8495C14.1205 20.7775 14.3883 20.4777 14.5662 20.2787L14.5677 20.277C14.5706 20.2736 14.5736 20.2701 14.5766 20.2665C14.584 20.2577 14.5919 20.2482 14.6009 20.2394C14.6339 20.4234 14.7258 20.5935 14.8639 20.7257C14.9487 20.8077 15.0492 20.8729 15.1598 20.9175C15.2703 20.9621 15.3887 20.9853 15.508 20.9858Z" fill="#F37B2A"/>
<path d="M5.34921 7.10919H6.32998V7.51884H5.34921V7.10919ZM5.00594 4.48318H6.6787V4.94011H5.00594V4.48318ZM4.89696 5.64388H8.1989V6.13231H4.89696V5.64388ZM5.48542 6.3634H6.61331V8.26988H5.48542V7.83921H6.10658V6.79932H5.48542V6.3634ZM5.10401 6.3634H5.59985V8.5745H5.10401V6.3634ZM5.56716 4.0105H6.12293V4.79305H5.56716V4.0105ZM7.62133 6.32664L8.14441 6.43693C7.98458 6.99014 7.75755 7.47858 7.46332 7.90224C7.16908 8.3224 6.81673 8.66728 6.40626 8.93688C6.38447 8.90537 6.34996 8.86336 6.30273 8.81084C6.25914 8.75832 6.21192 8.7058 6.16107 8.65328C6.11385 8.60076 6.07207 8.55874 6.03575 8.52723C6.42806 8.30314 6.7568 8.00203 7.02197 7.62388C7.29077 7.24574 7.49056 6.81332 7.62133 6.32664ZM5.12036 5.01889L5.53991 4.9191C5.57987 5.02414 5.61256 5.13968 5.63799 5.26573C5.66705 5.38828 5.68339 5.49682 5.68703 5.59136L5.24568 5.6964C5.24205 5.60536 5.22752 5.49682 5.20209 5.37077C5.18029 5.24122 5.15305 5.12393 5.12036 5.01889ZM7.26171 4.43592L7.68671 4.22058C7.79932 4.34663 7.90466 4.48844 8.00274 4.646C8.10082 4.80006 8.17528 4.93836 8.22614 5.0609L7.76845 5.3025C7.72849 5.18345 7.65947 5.04165 7.56139 4.87708C7.46332 4.71252 7.36342 4.56547 7.26171 4.43592ZM6.09023 4.9191L6.58607 5.00838C6.54248 5.13093 6.50071 5.25173 6.46075 5.37077C6.42079 5.48632 6.38447 5.58786 6.35177 5.67539L5.94312 5.58611C5.97218 5.49157 5.99942 5.38128 6.02485 5.25523C6.05391 5.12918 6.0757 5.01714 6.09023 4.9191ZM3.14792 4.19432H5.02773V4.75104H3.14792V4.19432ZM3.62196 5.31825H4.57548V5.8277H3.62196V5.31825ZM3.62196 6.38966H4.57548V6.90436H3.62196V6.38966ZM3.36586 4.49369H3.89439V7.79195H3.36586V4.49369ZM4.24856 4.49369H4.79888V8.93163H4.24856V4.49369ZM3.03894 7.6764C3.2351 7.64839 3.46576 7.61163 3.73093 7.56611C3.99973 7.52059 4.27399 7.47333 4.55369 7.42431L4.59728 7.95476C4.34664 8.00728 4.096 8.0598 3.84535 8.11232C3.59471 8.16134 3.36223 8.20686 3.14792 8.24887L3.03894 7.6764ZM6.76043 4H7.338C7.33436 4.44467 7.33618 4.87358 7.34344 5.28674C7.35434 5.6999 7.37069 6.08329 7.39248 6.43693C7.41428 6.78706 7.43971 7.09343 7.46877 7.35603C7.50146 7.61863 7.53778 7.82521 7.57774 7.97577C7.6177 8.12282 7.66129 8.19635 7.70851 8.19635C7.74483 8.19635 7.77208 8.13858 7.79024 8.02304C7.81204 7.90749 7.82838 7.74468 7.83928 7.5346C7.87197 7.57311 7.91556 7.61688 7.97005 7.6659C8.02454 7.71492 8.07902 7.75868 8.13351 7.7972C8.188 7.83571 8.23159 7.86547 8.26428 7.88648C8.21706 8.17009 8.15894 8.38717 8.08992 8.53773C8.02454 8.68829 7.95552 8.78983 7.88287 8.84235C7.81022 8.89837 7.74302 8.92638 7.68127 8.92638C7.5287 8.92288 7.39975 8.8441 7.29441 8.69004C7.18906 8.53598 7.10188 8.3154 7.03287 8.02829C6.96748 7.74118 6.91481 7.3963 6.87485 6.99364C6.83853 6.58749 6.81128 6.13231 6.79312 5.62812C6.77859 5.12393 6.76769 4.58122 6.76043 4Z" fill="black" fill-opacity="0.9"/>
<path d="M14.0228 10.4348L14.106 10.9496C13.9008 10.8894 13.6831 10.8142 13.453 10.7237C13.2267 10.6324 12.9944 10.5329 12.7563 10.4253C12.5197 10.3155 12.284 10.2016 12.0494 10.0836C11.8162 9.96341 11.5932 9.84462 11.3804 9.72723C11.4066 9.67149 11.4317 9.60269 11.4557 9.5208C11.4811 9.43668 11.4978 9.36602 11.506 9.30884C11.7165 9.42486 11.9345 9.53912 12.16 9.65162C12.3878 9.76548 12.612 9.87257 12.8326 9.97287C13.0555 10.0745 13.2679 10.1653 13.4699 10.2453C13.672 10.3252 13.8562 10.3884 14.0228 10.4348ZM11.1002 10.0164L13.8155 11.6327L13.5673 12.02L10.852 10.4037L11.1002 10.0164ZM10.3602 10.66L13.5189 12.5402L13.2643 12.9376L10.1056 11.0574L10.3602 10.66ZM12.534 10.2092L12.9636 10.465L11.548 12.6744C11.4704 12.7956 11.3956 12.8752 11.3239 12.9131C11.2529 12.9547 11.1643 12.967 11.0579 12.9502C10.959 12.9317 10.8425 12.8887 10.7085 12.8213C10.5767 12.7553 10.4233 12.6686 10.2483 12.5613C10.2659 12.5191 10.2802 12.4671 10.2912 12.4054C10.3031 12.3474 10.3134 12.2868 10.3221 12.2238C10.3294 12.163 10.3343 12.1085 10.3367 12.0603C10.4223 12.1144 10.5068 12.1678 10.5901 12.2205C10.6735 12.2732 10.7484 12.3193 10.8148 12.3589C10.8813 12.3984 10.9282 12.4264 10.9557 12.4428C10.9961 12.4637 11.0287 12.4722 11.0533 12.4683C11.078 12.4644 11.1011 12.4456 11.1227 12.4119L12.534 10.2092Z" fill="white"/>
<path d="M15.1528 17.593H17.0688V18.049H14.9248L15.1528 17.593ZM15.6768 18.469H16.9688V18.909H15.6768V18.469ZM15.6728 19.357H17.0208V19.805H15.6728V19.357ZM15.4328 17.745H15.9288V20.693H15.4328V17.745ZM15.2448 16.977L15.7048 17.097C15.6301 17.313 15.5421 17.5276 15.4408 17.741C15.3421 17.9543 15.2341 18.1543 15.1168 18.341C14.9995 18.525 14.8795 18.6876 14.7568 18.829C14.7328 18.797 14.6981 18.7596 14.6528 18.717C14.6075 18.6743 14.5608 18.633 14.5128 18.593C14.4675 18.5503 14.4261 18.517 14.3888 18.493C14.5088 18.373 14.6208 18.2316 14.7248 18.069C14.8315 17.9063 14.9288 17.7316 15.0168 17.545C15.1075 17.3556 15.1835 17.1663 15.2448 16.977ZM14.1848 16.953L14.6488 17.101C14.5635 17.3276 14.4621 17.5556 14.3448 17.785C14.2275 18.0143 14.0995 18.2316 13.9608 18.437C13.8221 18.6396 13.6795 18.817 13.5328 18.969C13.5168 18.929 13.4928 18.877 13.4608 18.813C13.4315 18.749 13.3995 18.6836 13.3648 18.617C13.3301 18.5503 13.2981 18.497 13.2688 18.457C13.3915 18.3343 13.5088 18.193 13.6208 18.033C13.7355 17.873 13.8408 17.701 13.9368 17.517C14.0355 17.333 14.1181 17.145 14.1848 16.953ZM13.7808 18.061L14.2648 17.577V20.689H13.7808V18.061Z" fill="white"/>
<path d="M18.5274 7.9023L19.1445 7.79736C19.1606 7.91906 19.1786 8.076 19.1984 8.26818C19.2182 8.46036 19.2285 8.67637 19.2294 8.91621C19.2327 9.15267 19.2173 9.40418 19.1831 9.67073C19.1489 9.93727 19.0848 10.2089 18.991 10.4856C18.8996 10.7589 18.7677 11.0287 18.5951 11.2951C18.425 11.5581 18.2042 11.8045 17.9328 12.0344C17.873 11.9764 17.7945 11.9171 17.6974 11.8566C17.6032 11.7956 17.5059 11.7425 17.4054 11.6974C17.674 11.4858 17.8908 11.2593 18.0556 11.018C18.2205 10.7766 18.3462 10.5315 18.4329 10.2827C18.519 10.0311 18.5753 9.78445 18.6018 9.54292C18.6277 9.29851 18.6367 9.07033 18.6286 8.85838C18.6206 8.64642 18.6045 8.45805 18.5805 8.29325C18.5565 8.12845 18.5388 7.99813 18.5274 7.9023ZM19.1434 7.91754C19.1564 7.97163 19.1781 8.05681 19.2086 8.1731C19.2392 8.28939 19.2828 8.42715 19.3396 8.58637C19.3964 8.74559 19.4693 8.9169 19.5582 9.10029C19.6495 9.28031 19.7598 9.46302 19.889 9.64845C20.0183 9.83387 20.1691 10.0112 20.3414 10.1804C20.5138 10.3496 20.7118 10.4996 20.9356 10.6304C21.1623 10.7608 21.4179 10.864 21.7023 10.94C21.6269 11.0151 21.5593 11.0992 21.4995 11.1923C21.4427 11.2849 21.3985 11.3709 21.3669 11.4504C21.0685 11.3648 20.7998 11.249 20.561 11.103C20.3246 10.9536 20.114 10.785 19.929 10.5972C19.7464 10.406 19.5872 10.2079 19.4513 10.0029C19.3154 9.79784 19.1982 9.59407 19.0997 9.39158C19.0036 9.18571 18.9238 8.99336 18.8604 8.81453C18.7969 8.6357 18.7468 8.47977 18.7102 8.34675C18.6765 8.21322 18.6512 8.11679 18.6342 8.05746L19.1434 7.91754Z" fill="black" fill-opacity="0.9"/>
</svg>
