<svg width="48" height="48" viewBox="0 0 48 48" fill="none" xmlns="http://www.w3.org/2000/svg">
<path d="M36 8H12C9.79086 8 8 9.79086 8 12V36C8 36.2242 8.01844 36.444 8.05386 36.658C8.3677 38.554 10.015 40 12 40H36C38.2092 40 40 38.2092 40 36V28.3802V12C40 9.79086 38.2092 8 36 8Z" stroke="black" stroke-width="3" stroke-linecap="round" stroke-linejoin="round"/>
<path d="M22 18C22 20.2092 20.2092 22 18 22C15.7909 22 14 20.2092 14 18C14 15.7909 15.7909 14 18 14C20.2092 14 22 15.7909 22 18Z" stroke="black" stroke-width="3" stroke-linecap="round" stroke-linejoin="round"/>
<path d="M8.05383 36.658L15.6952 29.0166C17.0553 27.8266 19.0444 27.6964 20.548 28.6988L21.5664 29.3776C23.0156 30.3438 24.9238 30.261 26.284 29.173L31.5802 24.9358C32.9302 23.8558 34.8106 23.7712 36.2456 24.6968C36.4046 24.7994 36.5462 24.9264 36.68 25.0604L40 28.3802" stroke="black" stroke-width="3" stroke-linecap="round" stroke-linejoin="round"/>
</svg>
