<svg width="96" height="96" viewBox="0 0 96 96" fill="none" xmlns="http://www.w3.org/2000/svg">
<rect x="11" y="19" width="74" height="58" rx="13" stroke="black" stroke-opacity="0.9" stroke-width="6"/>
<path d="M55.4242 42.5091C58.1959 44.3355 59.5818 45.2487 60.05 46.3947C60.4591 47.3959 60.4454 48.5201 60.0118 49.511C59.5156 50.6451 58.1078 51.5241 55.2921 53.282L46.4769 58.7855C43.2412 60.8057 41.6234 61.8157 40.2973 61.7038C39.1417 61.6062 38.0853 61.0118 37.402 60.0748C36.6178 58.9996 36.6412 57.0925 36.688 53.2782L36.8256 42.0566C36.8724 38.2424 36.8958 36.3353 37.706 35.2796C38.4121 34.3596 39.4828 33.7914 40.6404 33.7222C41.9688 33.6427 43.5614 34.6922 46.7466 36.791L55.4242 42.5091Z" fill="black" fill-opacity="0.9"/>
<path d="M52.1148 48.1927L43.2996 53.6964C43.0825 53.8319 42.8765 53.9603 42.6805 54.0823C42.6831 53.8512 42.6844 53.6082 42.6875 53.3519L42.8252 42.1301C42.8283 41.8738 42.833 41.6309 42.8361 41.3997L43.4454 41.8008L52.1231 47.5189C52.306 47.6395 52.4789 47.7537 52.6433 47.8622L52.1148 48.1927Z" stroke="black" stroke-opacity="0.9" stroke-width="12"/>
</svg>
